<svg id="Layer_1" data-name="Layer 1" xmlns="http://www.w3.org/2000/svg" xmlns:xlink="http://www.w3.org/1999/xlink" viewBox="0 0 1561.8 798.29"><defs><style>.cls-1{fill:#d9d9d9;}.cls-2{clip-path:url(#clip-path);}.cls-3{fill:#c59d5f;opacity:0.4;}</style><clipPath id="clip-path" transform="translate(39.17 77.8)"><rect class="cls-1" width="1481.79" height="642.68"/></clipPath></defs><rect class="cls-1" x="39.17" y="77.8" width="1481.79" height="642.68"/><g class="cls-2"><path class="cls-3" d="M1275,309.1l-.25.07L1181.91,404,996.56,451.41l-.25.06-92.8,94.87L718.16,593.71l-.25.06L625.1,688.64,500.49,720.48h3.74L626.1,689.34l.25-.07,92.8-94.86L904.5,547l.25-.07,92.81-94.86,185.35-47.38.25-.06L1276,309.8l185.35-47.37.25-.06,61.07-62.43V198l-62.31,63.7Zm-23.2-11.86-.25.07-92.8,94.87L973.36,439.55l-.25.06-92.8,94.87L695,581.85l-.24.06L601.9,676.78l-171,43.7h3.74l168.27-43,.25-.06L696,582.55,881.3,535.18l.25-.07,92.8-94.86,185.36-47.37.25-.07,92.8-94.87,185.35-47.37.25-.06,84.27-86.14v-1.91l-85.51,87.41Zm92.56-237.1L1251.51,155l-185.35,47.37-.25.06-92.8,94.87L787.75,344.68l-.24.06-92.8,94.87L509.35,487l-.25.06-92.8,94.87L231,629.28l-.25.07-89.15,91.13h1.87L231.94,630,417.3,582.61l.25-.06,92.8-94.87L695.7,440.31l.25-.06,92.8-94.87L974.11,298l.24-.07,92.81-94.86,185.35-47.37.25-.07,92.8-94.87,177.07-45.25v-.95l-178.07,45.5ZM1367.52,72l-92.81,94.86-185.35,47.37-.25.07-92.8,94.87L811,356.54l-.25.06-92.8,94.87L532.55,498.84l-.25.06-92.8,94.87L254.15,641.14l-.25.06-77.55,79.28h1.86l76.93-78.64L440.5,594.47l.25-.06,92.8-94.87L718.9,452.17l.25-.06L812,357.24l185.36-47.37.25-.07,92.8-94.87,185.35-47.37.25-.06,92.8-94.87,153.87-39.32v-1L1367.77,71.93Zm116,343.89-92.8,94.87-185.36,47.37-.25.07-92.8,94.86L927,700.43l-.25.07-19.55,20H909L928,701.13l185.36-47.37.25-.06,92.8-94.87,185.35-47.37.25-.06,92.8-94.87,37.87-9.68v-1l-38.86,9.93Zm23.2,11.86-92.8,94.87L1228.56,570l-.25.06-92.8,94.87L950.16,712.29l-.25.07L942,720.48h1.87l7.32-7.49,185.36-47.37.25-.06,92.8-94.87,185.35-47.37.25-.06,92.8-94.87,14.67-3.75v-.95l-15.66,4Zm-185.36-94.93-.24.06-92.81,94.87L1043,475.12l-.25.07-92.8,94.86L764.56,617.42l-.25.07-92.8,94.87-31.81,8.12h3.73l29.07-7.42.25-.07,92.8-94.87,185.36-47.37.24-.06L1044,475.82l185.35-47.37.25-.06,92.8-94.87,185.35-47.37.25-.06,14.67-15v-1.91l-15.91,16.26ZM1298.16,321l-.24.06-92.81,94.87-185.35,47.37-.25.07-92.8,94.87L741.36,605.57l-.25.06-92.8,94.87-78.22,20h3.74L649.3,701.2l.25-.07,92.8-94.86L927.71,558.9l.24-.07L1020.76,464l185.35-47.37.25-.06,92.8-94.87,185.35-47.37.25-.06,37.87-38.71v-1.91l-39.11,40Zm162.16-201.53-92.8,94.87-185.36,47.37-.25.06-92.8,94.87L903.76,404l-.25.06-92.8,94.87L625.35,546.27l-.25.07L532.3,641.2,347,688.57l-.25.07-31.15,31.84h1.87L348,689.27,533.3,641.9l.25-.06L626.35,547,811.7,499.6l.25-.06,92.8-94.87,185.36-47.37.25-.06,92.8-94.87L1368.51,215l.25-.07,92.8-94.86,61.07-15.61v-.95l-62.07,15.86Zm46.4,23.72L1413.92,238l-185.36,47.37-.25.06-92.8,94.87L950.16,427.69l-.25.06-92.8,94.87L671.75,570l-.24.06L578.7,664.92,393.35,712.29l-.25.07-8,8.12H387l7.33-7.49L579.7,665.62l.25-.06,92.8-94.87L858.1,523.32l.25-.06,92.81-94.87L1136.51,381l.25-.07,92.8-94.86,185.35-47.37.25-.07,92.8-94.87,14.67-3.74v-1l-15.66,4Zm-23.2-11.86-92.8,94.87-185.36,47.37-.25.06-92.8,94.87L927,415.83l-.25.06-92.8,94.87L648.55,558.13l-.24.07L555.5,653.06,370.15,700.43l-.25.07-19.55,20h1.87l18.93-19.35L556.5,653.76l.25-.06,92.8-94.87L834.9,511.46l.25-.06L928,416.53l185.36-47.37.25-.07,92.8-94.86,185.35-47.37.25-.07,92.8-94.86,37.87-9.68v-1l-38.86,9.94Zm-92.8-47.44-92.81,94.87-185.35,47.37-.25.07L1019.51,321,834.16,368.39l-.25.07-92.8,94.86L555.75,510.7l-.25.06-92.8,94.87L277.35,653l-.25.06-66,67.42H213l65.32-66.78L463.7,606.33l.25-.06,92.8-94.87L742.1,464l.25-.07,92.8-94.86,185.36-47.38.25-.06,92.8-94.87,185.35-47.37.25-.06L1392,84.49,1522.63,51.1v-1L1391,83.79Zm-69.36-35.64-.24.07-92.81,94.87L1043,190.52l-.25.06-92.8,94.87L764.56,332.82l-.25.06-92.8,94.87L486.15,475.12l-.25.07-92.8,94.86L207.75,617.42l-.25.07-92.8,94.87-31.81,8.12h3.74l29.06-7.42.25-.07,92.8-94.87L394.1,570.75l.25-.06,92.8-94.87L672.5,428.45l.25-.06,92.8-94.87,185.36-47.37.24-.06L1044,191.22l185.35-47.37.25-.07,92.8-94.86L1507.71,1.54l.25-.06,14.67-15v-1.91L1506.72.84Zm92.56,47.5-92.8,94.87L1135.76,238l-.25.07-92.8,94.86L857.36,380.25l-.25.07-92.8,94.87L579,522.56l-.25.06-92.8,94.87L300.55,664.86l-.25.06L246,720.48h1.87l53.72-54.92L486.9,618.19l.25-.07L580,523.26,765.3,475.89l.25-.07L858.35,381l185.36-47.37.25-.06,92.8-94.87,185.35-47.37.25-.06,92.8-94.87,107.47-27.46v-1L1414.17,95.65ZM1460.32,404l-92.8,94.87-185.36,47.37-.25.07-92.8,94.86L903.76,688.57l-.25.07-31.16,31.84h1.87l30.53-31.21,185.36-47.37.25-.06,92.8-94.87,185.35-47.37.25-.06,92.8-94.87,61.07-15.61v-.95L1460.56,404Zm23.2-415L1298.16,36.36l-.24.06-92.81,94.87-185.35,47.37-.25.06-92.8,94.87L741.36,321l-.25.06-92.8,94.87L463,463.26l-.25.07L369.9,558.2,184.55,605.57l-.25.06L91.5,700.5l-78.21,20H17L92.49,701.2l.25-.07,92.8-94.86L370.9,558.9l.25-.07L464,464,649.3,416.59l.25-.06,92.8-94.87,185.36-47.37.24-.06,92.81-94.87L1206.11,132l.25-.06,92.8-94.87,185.35-47.37.25-.07,37.87-38.7V-51Zm-46.4,118.58-92.8,94.87L1159,249.81l-.25.06-92.8,94.87L880.56,392.11l-.25.07L787.51,487,602.15,534.41l-.25.07-92.8,94.87L323.75,676.72l-.25.06-42.75,43.7h1.87l42.13-43.06L510.1,630.05l.25-.07,92.8-94.87L788.5,487.74l.25-.06,92.81-94.87,185.35-47.37.25-.06,92.8-94.87,185.35-47.37.25-.06,92.8-94.87,84.27-21.54v-1l-85.27,21.79Zm-46.4,545.49-66,67.42h1.87L1392,653.7l130.67-33.39v-1L1391,653Zm23.2,11.86-54.36,55.56h1.87l53.73-54.92,107.47-27.47v-1l-108.46,27.72Zm-69.6-35.57-89.16,91.13H1257l88.53-90.5,177.07-45.25v-1l-178.07,45.5Zm92.8,47.43-42.76,43.7h1.87l42.13-43.06,84.27-21.54v-1l-85.27,21.79Zm-115.76-59.36-.24.07-92.81,94.87-31.81,8.12h3.74l29.07-7.42.25-.07,92.8-94.87,185.35-47.37.25-.06,14.67-15v-1.91l-15.91,16.26Zm185.36,94.94-8,8.12h1.87L1508,713l14.67-3.75v-1l-15.66,4Zm-23.2-11.86-19.56,20h1.87l18.93-19.35,37.87-9.67v-1l-38.86,9.93Zm-46.4-308.32L1344.32,487,1159,534.41l-.25.07-92.8,94.87L880.56,676.72l-.25.06-42.75,43.7h1.86l42.13-43.06,185.36-47.37.25-.07,92.8-94.87,185.35-47.37.25-.06,92.8-94.87,84.27-21.53v-1l-85.27,21.79Zm23.2,296.46-31.16,31.84H1431l30.53-31.21,61.07-15.6v-1l-62.07,15.86Zm-162.16-83.07-.24.06-92.81,94.87-78.21,20h3.74l75.47-19.28.25-.07,92.8-94.86,185.35-47.37.25-.07,37.87-38.71v-1.91l-39.11,40Zm69.36-249-92.81,94.87-185.35,47.37-.25.06-92.8,94.87L811,641.14l-.25.06-77.56,79.28H735L812,641.84l185.36-47.37.25-.06,92.8-94.87,185.35-47.37.25-.06,92.8-94.87,153.87-39.33v-1l-154.86,39.58Zm46.4,23.72-92.8,94.87-185.36,47.37-.25.06-92.8,94.87L857.36,664.86l-.25.06-54.36,55.56h1.87l53.73-54.92,185.36-47.37.25-.07,92.8-94.86,185.35-47.37.25-.07,92.8-94.87,107.47-27.46v-1l-108.46,27.72Zm-23.2-11.86-92.8,94.87L1112.56,510.7l-.25.06-92.8,94.87L834.16,653l-.25.06-66,67.42h1.87l65.33-66.78,185.36-47.37.25-.06,92.8-94.87L1298.91,464l.25-.07,92.8-94.87,130.67-33.39v-.95L1391,368.39Zm-46.4-23.72-92.81,94.87L1066.16,487l-.25.06-92.8,94.87L787.75,629.28l-.24.07-89.16,91.13h1.87L788.75,630l185.36-47.37.24-.06,92.81-94.87,185.35-47.37.25-.06,92.8-94.87,177.07-45.25v-1l-178.07,45.51Zm-69.36,249-.25.06-92.8,94.87L1057.3,720.48H1061l121.87-31.14.25-.07,92.8-94.86L1461.31,547l.25-.07,61.07-62.42v-1.91l-62.31,63.7Zm-23.2-11.86-.25.06-92.8,94.87-171,43.7h3.74l168.27-43,.25-.06,92.8-94.87,185.35-47.37.25-.07L1522.63,449v-1.91l-85.51,87.42Zm115.76,59.35L1290,720.48h1.87l76.93-78.64,153.87-39.32v-1l-154.86,39.58ZM69.54,262.37,254.89,215l.25-.07L348,120.07,533.3,72.7l.25-.07,92.8-94.87L811.7-69.61l.25-.06,8-8.13H818l-7.33,7.49L625.35-22.94l-.25.07L532.3,72,347,119.37l-.25.06L253.9,214.3,68.55,261.67l-.25.06L-24.5,356.6l-14.67,3.75v.95l15.91-4.06ZM23.14,381l92.8-94.86L301.3,238.72l.24-.07,92.81-94.87L579.7,96.41l.25-.06,92.8-94.87L858.1-45.89l.25-.06L889.51-77.8h-1.87L857.11-46.59,671.75.78l-.24.06L578.7,95.71,393.35,143.08l-.25.07L300.3,238,115,285.39l-.25.06L21.9,380.32l-61.07,15.6v1L22.89,381ZM185.29,464l.25-.07,92.8-94.87L463.7,321.72l.25-.06,92.8-94.87L742.1,179.42l.25-.06,92.8-94.87,185.36-47.37.25-.06,92.8-94.87,78.23-20h-3.74l-75.49,19.29-.25.06-92.8,94.87L834.16,83.79l-.25.06-92.8,94.87L555.75,226.09l-.25.07L462.7,321,277.35,368.39l-.25.07-92.8,94.87L-1.06,510.7l-.24.06-37.87,38.71v1.91l39.11-40Zm-23.2-11.86.25-.06,92.8-94.87L440.5,309.87l.25-.07,92.8-94.87L718.9,167.56l.25-.06L812,72.63,997.31,25.26l.25-.06,92.8-94.87,31.83-8.13h-3.74l-29.09,7.43-.25.06-92.8,94.87L811,71.93l-.25.07-92.8,94.86L532.55,214.23l-.25.07-92.8,94.86L254.15,356.54l-.25.06-92.8,94.87L-24.26,498.84l-.24.06-14.67,15v1.91l15.91-16.26ZM8.57-77.8H4.83l-29.09,7.43-.24.06-14.67,15v1.9l15.91-16.26ZM92.74,416.53l92.8-94.87L370.9,274.29l.25-.06L464,179.36,649.3,132l.25-.06,92.8-94.87L927.71-10.31l.24-.07,66-67.42H992L926.71-11,741.36,36.36l-.25.06L648.3,131.29,463,178.66l-.25.06-92.8,94.87L184.55,321l-.25.06L91.5,415.89l-130.67,33.4v.95L92.49,416.59Zm-23.2-11.86,92.8-94.87L347.7,262.43l.25-.06,92.8-94.87L626.1,120.13l.25-.06,92.8-94.87L904.5-22.17l.25-.07L959.11-77.8h-1.87L903.51-22.87,718.16,24.5l-.25.06L625.1,119.43,439.75,166.8l-.25.06-92.8,94.87L161.35,309.1l-.25.07L68.3,404-39.17,431.5v.95L69.29,404.73Zm-23.2-11.86,92.8-94.87L324.5,250.57l.24-.06,92.81-94.87L602.9,108.27l.25-.06L696,13.34,881.3-34l.25-.06L924.31-77.8h-1.87L880.31-34.73,695,12.64l-.24.06L601.9,107.57,416.55,154.94l-.25.07-92.8,94.86L138.14,297.24l-.24.07L45.1,392.18l-84.27,21.53v1l85.26-21.79ZM23.14,665.56,116,570.69,301.3,523.32l.24-.06,92.81-94.87L579.7,381,580,381l92.8-94.86L858.1,238.72l.25-.07,92.8-94.87,185.36-47.37.25-.06,92.8-94.87,185.35-47.37.25-.06,31.16-31.85h-1.87l-30.53,31.21L1228.56.78l-.25.06-92.8,94.87L950.16,143.08l-.25.07L857.11,238,671.75,285.39l-.24.06L578.7,380.32,393.35,427.69l-.25.06-92.8,94.87L115,570l-.25.06L21.9,664.92l-61.07,15.61v1l62.06-15.86ZM-.06,653.7l92.8-94.87L278.1,511.46l.24-.06,92.81-94.87L556.5,369.16l.25-.07,92.8-94.86L834.9,226.86l.25-.07L928,131.93l185.36-47.37.25-.07,92.8-94.87,185.35-47.37.25-.06,19.56-20h-1.87l-18.93,19.35L1205.36-11.08l-.25.07-92.8,94.86L927,131.23l-.25.06-92.8,94.87L648.55,273.53l-.24.06L555.5,368.46,370.15,415.83l-.25.06-92.8,94.87L91.75,558.13l-.25.07L-1.3,653.06l-37.87,9.68v1l38.86-9.94ZM69.54,547,254.89,499.6l.25-.06L348,404.67,533.3,357.3l.25-.06,92.8-94.87L811.7,215l.25-.07,92.8-94.86L1090.11,72.7l.25-.07,92.8-94.87,185.35-47.37.25-.06,8-8.13h-1.87l-7.33,7.49L1182.16-22.94l-.25.07L1089.11,72,903.76,119.37l-.25.06L810.7,214.3,625.35,261.67l-.25.06L532.3,356.6,347,404l-.25.06L253.9,498.9,68.55,546.27l-.25.07L-24.51,641.2-39.17,645v1l15.91-4.07Zm139-71.08.25-.07L301.54,381,486.9,333.58l.25-.06L580,238.65,765.3,191.28l.25-.06,92.8-94.87L1043.71,49l.25-.06,92.8-94.87L1261.39-77.8h-3.74L1135.76-46.65l-.25.06-92.8,94.87L857.36,95.65l-.25.06-92.8,94.87L579,238l-.25.07-92.8,94.86L300.55,380.25l-.25.07-92.8,94.87L22.15,522.56l-.25.06-61.07,62.43V587l62.31-63.7ZM69.54,689.27l92.8-94.86L347.7,547,348,547l92.8-94.86L626.1,404.73l.25-.06,92.8-94.87L904.5,262.43l.25-.06,92.81-94.87,185.35-47.37.25-.06L1276,25.2l185.35-47.37.25-.07,54.36-55.56h-1.87l-53.73,54.93L1275,24.5l-.25.06-92.8,94.87L996.56,166.8l-.25.06-92.8,94.87L718.16,309.1l-.25.07L625.1,404,439.75,451.41l-.25.06-92.8,94.87L161.35,593.71l-.25.06L68.3,688.64-39.17,716.1v1L69.29,689.34ZM231.69,487.74l.25-.06,92.8-94.87L510.1,345.44l.25-.06,92.8-94.87L788.5,203.14l.25-.06,92.8-94.87,185.36-47.37.25-.07L1160-34.09,1331-77.8h-3.74L1159-34.79l-.25.06-92.8,94.87L880.56,107.51l-.25.06-92.8,94.87L602.15,249.81l-.25.06-92.8,94.87L323.75,392.11l-.25.07L230.7,487,45.35,534.41l-.25.07-84.27,86.14v1.91l85.51-87.41ZM115.94,428.39l92.8-94.87L394.1,286.15l.25-.06,92.8-94.87L672.5,143.85l.25-.07,92.8-94.86L950.91,1.54l.24-.06,77.56-79.28h-1.87L949.91.84,764.56,48.21l-.25.07-92.8,94.87L486.15,190.52l-.25.06-92.8,94.87L207.75,332.82l-.25.06-92.8,94.87L-39.17,467.07v1l154.86-39.58Zm-69.6,249,92.8-94.87L324.5,535.18l.24-.07,92.81-94.86L602.9,392.88l.25-.07L696,297.94,881.3,250.57l.25-.06,92.8-94.87,185.36-47.37.25-.06,92.8-94.87L1438.11-34l.25-.06,42.76-43.71h-1.87l-42.13,43.07L1251.76,12.64l-.25.06-92.8,94.87L973.36,154.94l-.25.07-92.8,94.86L695,297.24l-.24.07L601.9,392.18,416.55,439.55l-.25.06-92.8,94.87L138.14,581.85l-.24.06L45.1,676.78l-84.27,21.54v.95l85.26-21.79ZM-.06,369.09l92.8-94.86L278.1,226.86l.24-.07,92.81-94.86L556.5,84.56l.25-.07,92.8-94.87L834.9-57.75l.25-.06,19.56-20h-1.87L833.91-58.45,648.55-11.08l-.24.07L555.5,83.85,370.15,131.23l-.25.06-92.8,94.87L91.75,273.53l-.25.06L-1.3,368.46l-37.87,9.68v.95l38.86-9.93Zm46.4-260.88,92.8-94.87L324.5-34l.24-.06L367.5-77.8h-1.87L323.5-34.73,138.14,12.64l-.24.06L45.1,107.57l-84.27,21.54v.95l85.26-21.79Zm46.4,23.72,92.8-94.87L370.9-10.31l.25-.07,66-67.42h-1.86L369.9-11,184.55,36.36l-.25.06L91.5,131.29-39.17,164.68v1L92.49,132Zm23.2,11.85,92.8-94.86L394.1,1.54l.25-.06L471.9-77.8H470L393.1.84,207.75,48.21l-.25.07-92.8,94.87L-39.17,182.47v1l154.86-39.58Zm-46.4-23.71,92.8-94.87L347.7-22.17l.25-.07L402.3-77.8h-1.87L346.7-22.87,161.35,24.5l-.25.06L68.3,119.43-39.17,146.89v1L69.29,120.13Zm69.6,35.57,92.8-94.87L417.3,13.4l.25-.06L506.71-77.8h-1.87L416.3,12.7,231,60.07l-.25.07L137.9,155-39.17,200.26v1l178.06-45.5ZM78.17-77.8H74.43L-1.06-58.51l-.24.06L-39.17-19.74v1.91l39.11-40Zm139.2,0h-3.74l-168.28,43-.25.06L-39.17,51.41v1.91L46.34-34.09Zm-69.6,0H144L22.15-46.65l-.25.06L-39.17,15.84v1.91l62.31-63.7Zm14.32,245.36.25-.06,92.8-94.87L440.5,25.26l.25-.06,92.8-94.87,31.83-8.13h-3.74l-29.09,7.43-.25.06L439.5,24.56,254.15,71.93l-.25.07-92.8,94.86L-24.26,214.23l-.24.07-14.67,15v1.91l15.91-16.27ZM23.14,96.35l92.8-94.87L301.3-45.89l.24-.06L332.7-77.8h-1.87L300.3-46.59,115,.78l-.25.06L21.9,95.71l-61.07,15.61v1L22.89,96.41ZM231.69,203.14l.25-.06,92.8-94.87L510.1,60.84l.25-.07,92.8-94.86,171-43.71h-3.74l-168.29,43-.25.06L509.1,60.14,323.75,107.51l-.25.06-92.8,94.87L45.35,249.81l-.25.06L-39.17,336v1.91l85.51-87.42Zm-46.4-23.72.25-.06,92.8-94.87L463.7,37.12l.25-.06,92.8-94.87L635-77.8h-3.74L555.75-58.51l-.25.06L462.7,36.42,277.35,83.79l-.25.06-92.8,94.87L-1.06,226.09l-.24.07-37.87,38.71v1.91l39.11-40Zm23.2,11.86.25-.06,92.81-94.87L486.9,49l.25-.06L580-45.95,704.58-77.8h-3.74L579-46.65l-.25.06L485.9,48.28,300.55,95.65l-.25.06-92.8,94.87L22.15,238l-.25.07-61.07,62.42v1.91l62.31-63.7ZM-.06,84.49l92.8-94.87L278.1-57.75l.24-.06,19.56-20H296L277.1-58.45,91.75-11.08,91.5-11-1.3,83.85l-37.87,9.68v1L-.31,84.56ZM69.54-22.24,254.89-69.61l.25-.06,8-8.13h-1.87l-7.33,7.49L68.55-22.94l-.25.07L-24.5,72l-14.67,3.74v1l15.91-4.07Zm69.6,462.49,92.8-94.87L417.3,298l.25-.07,92.8-94.86L695.7,155.71l.25-.07,92.8-94.87L974.11,13.4l.24-.06,89.16-91.14h-1.86L973.11,12.7,787.75,60.07l-.24.07L694.71,155,509.35,202.38l-.25.06-92.8,94.87L231,344.68l-.25.06-92.8,94.87L-39.17,484.86v1l178.06-45.51Z" transform="translate(39.17 77.8)"/></g></svg>