<svg width="419" height="81" viewBox="0 0 419 81" fill="none" xmlns="http://www.w3.org/2000/svg">
<path d="M35 74L119.921 74" stroke="#BEBEBE" stroke-width="2" stroke-miterlimit="10"/>
<path d="M300.079 74H385" stroke="#BEBEBE" stroke-width="2" stroke-miterlimit="10"/>
<path d="M135.439 65.7422H134.297C133.164 65.7422 132.122 65.931 131.172 66.3086C130.228 66.6797 129.427 67.2005 128.77 67.8711C128.118 68.5352 127.624 69.3034 127.285 70.1758C126.947 71.0482 126.777 71.9824 126.777 72.9785C126.777 73.89 126.95 74.7624 127.295 75.5957C127.646 76.4225 128.161 77.1615 128.838 77.8125C129.521 78.457 130.335 78.9616 131.279 79.3262C132.223 79.6842 133.278 79.8633 134.443 79.8633C134.964 79.8633 135.296 79.8568 135.439 79.8438V79.7168C134.144 79.7428 132.988 79.5736 131.973 79.209C130.964 78.8379 130.13 78.3236 129.473 77.666C128.815 77.002 128.324 76.2533 127.998 75.4199C127.679 74.5866 127.52 73.7402 127.52 72.8809C127.52 72.0345 127.66 71.2012 127.939 70.3809C128.219 69.5605 128.649 68.8086 129.229 68.125C129.814 67.4414 130.57 66.8978 131.494 66.4941C132.419 66.084 133.506 65.8789 134.756 65.8789H135.439V65.7422ZM139.863 77.3633L138.418 80.0391C137.793 79.987 137.34 79.9609 137.061 79.9609C136.715 79.9609 136.25 79.987 135.664 80.0391C135.078 80.0911 134.622 80.1172 134.297 80.1172C132.982 80.1172 131.816 79.9154 130.801 79.5117C129.792 79.1016 128.958 78.5514 128.301 77.8613C127.643 77.1647 127.155 76.3997 126.836 75.5664C126.517 74.7266 126.357 73.877 126.357 73.0176C126.357 71.9173 126.543 70.9049 126.914 69.9805C127.292 69.0495 127.822 68.252 128.506 67.5879C129.189 66.9173 129.987 66.4062 130.898 66.0547C131.81 65.6966 132.79 65.5176 133.838 65.5176C134.111 65.5176 134.284 65.5208 134.355 65.5273C134.427 65.5273 134.583 65.5339 134.824 65.5469C135.065 65.5534 135.309 65.5632 135.557 65.5762C136.436 65.6348 137.109 65.6641 137.578 65.6641C138.62 65.6641 139.3 65.6348 139.619 65.5762L139.736 68.8574H139.619L138.965 66.6797C138.77 66.6341 138.424 66.569 137.93 66.4844C137.435 66.3997 136.95 66.3314 136.475 66.2793C136.006 66.2272 135.514 66.2012 135 66.2012C133.659 66.2012 132.51 66.4714 131.553 67.0117C130.602 67.5456 129.886 68.3073 129.404 69.2969C128.923 70.2799 128.682 71.4128 128.682 72.6953C128.682 73.6914 128.854 74.6094 129.199 75.4492C129.544 76.2826 130.026 76.9954 130.645 77.5879C131.263 78.1738 131.966 78.6198 132.754 78.9258C133.548 79.2318 134.385 79.3848 135.264 79.3848C136.136 79.3848 136.953 79.2383 137.715 78.9453C138.477 78.6458 139.157 78.1055 139.756 77.3242L139.863 77.3633ZM149.15 65.498C150.537 65.498 151.738 65.7292 152.754 66.1914C153.77 66.6536 154.6 67.2591 155.244 68.0078C155.895 68.7565 156.37 69.554 156.67 70.4004C156.976 71.2402 157.129 72.0475 157.129 72.8223C157.129 73.7077 156.956 74.5768 156.611 75.4297C156.273 76.2826 155.768 77.0638 155.098 77.7734C154.434 78.4766 153.607 79.0397 152.617 79.4629C151.634 79.8861 150.537 80.0977 149.326 80.0977C147.575 80.0977 146.09 79.7201 144.873 78.9648C143.656 78.2031 142.757 77.2624 142.178 76.1426C141.598 75.0228 141.309 73.929 141.309 72.8613C141.309 71.9173 141.491 71.0026 141.855 70.1172C142.227 69.2318 142.76 68.4408 143.457 67.7441C144.16 67.041 145 66.4909 145.977 66.0938C146.953 65.6966 148.011 65.498 149.15 65.498ZM149.209 66.1816C148.2 66.1816 147.266 66.4453 146.406 66.9727C145.553 67.5 144.873 68.2617 144.365 69.2578C143.864 70.2539 143.613 71.429 143.613 72.7832C143.613 74.2415 143.887 75.4753 144.434 76.4844C144.987 77.487 145.693 78.2324 146.553 78.7207C147.419 79.2025 148.311 79.4434 149.229 79.4434C149.977 79.4434 150.687 79.3001 151.357 79.0137C152.028 78.7272 152.627 78.3105 153.154 77.7637C153.682 77.2103 154.092 76.5332 154.385 75.7324C154.684 74.9251 154.834 74.0267 154.834 73.0371C154.834 71.6829 154.678 70.6022 154.365 69.7949C154.053 68.9876 153.594 68.2812 152.988 67.6758C152.474 67.1615 151.888 66.7839 151.23 66.543C150.579 66.3021 149.906 66.1816 149.209 66.1816ZM149.707 65.7812V65.8789C150.339 65.9245 150.973 66.0742 151.611 66.3281C152.249 66.5755 152.845 66.9661 153.398 67.5C153.958 68.0273 154.408 68.7402 154.746 69.6387C155.085 70.5371 155.254 71.6178 155.254 72.8809C155.254 73.7077 155.153 74.4987 154.951 75.2539C154.756 76.0091 154.437 76.7057 153.994 77.3438C153.558 77.9818 152.985 78.5091 152.275 78.9258C151.566 79.3424 150.716 79.5996 149.727 79.6973V79.8047C150.56 79.7656 151.351 79.5866 152.1 79.2676C152.848 78.9486 153.512 78.4928 154.092 77.9004C154.678 77.3014 155.14 76.5723 155.479 75.7129C155.817 74.8535 155.986 73.8965 155.986 72.8418C155.986 71.6895 155.811 70.6738 155.459 69.7949C155.107 68.9095 154.629 68.1738 154.023 67.5879C153.418 67.002 152.744 66.5592 152.002 66.2598C151.266 65.9603 150.501 65.8008 149.707 65.7812ZM148.75 65.8789V65.7812C147.839 65.7878 146.95 65.9831 146.084 66.3672C145.218 66.7513 144.456 67.2721 143.799 67.9297C143.141 68.5872 142.627 69.3359 142.256 70.1758C141.891 71.0156 141.709 71.8978 141.709 72.8223C141.709 73.9551 142.015 75.0586 142.627 76.1328C143.245 77.2005 144.098 78.0697 145.186 78.7402C146.273 79.4108 147.467 79.7656 148.77 79.8047V79.6973C147.507 79.5866 146.39 79.1927 145.42 78.5156C144.45 77.8385 143.711 76.9987 143.203 75.9961C142.702 74.9935 142.451 73.9551 142.451 72.8809C142.451 71.9954 142.598 71.1458 142.891 70.332C143.184 69.5182 143.607 68.7923 144.16 68.1543C144.714 67.5163 145.381 66.9987 146.162 66.6016C146.95 66.2044 147.812 65.9635 148.75 65.8789ZM160.918 66.084V79.6387H161.592V66.084H160.918ZM157.959 65.7031H168.398L168.594 68.7988H168.457L167.754 66.3379C167.031 66.2988 166.426 66.2793 165.938 66.2793C164.707 66.2793 163.672 66.3737 162.832 66.5625C162.78 67.0117 162.731 67.6302 162.686 68.418C162.64 69.2057 162.617 69.8079 162.617 70.2246C162.617 70.6803 162.643 71.3444 162.695 72.2168C163.301 72.2884 164.007 72.3242 164.814 72.3242C165.667 72.3242 166.374 72.2884 166.934 72.2168L167.412 70.5371H167.539V74.7168H167.412L166.934 72.9395C166.562 72.9004 166.204 72.8743 165.859 72.8613C165.521 72.8483 165.166 72.8418 164.795 72.8418C164.443 72.8418 163.737 72.8743 162.676 72.9395C162.637 73.623 162.617 74.3229 162.617 75.0391C162.617 75.5404 162.643 76.2858 162.695 77.2754C162.747 78.2585 162.812 79.0202 162.891 79.5605L165.332 79.9023V80H157.959V79.9023L160.312 79.5605C160.41 78.877 160.488 77.9557 160.547 76.7969C160.605 75.638 160.635 74.6647 160.635 73.877V71.1621C160.635 70.8236 160.622 70.3255 160.596 69.668C160.576 69.0039 160.547 68.3594 160.508 67.7344C160.475 67.1029 160.423 66.5788 160.352 66.1621L157.959 65.8008V65.7031ZM172.383 66.084V79.6387H173.057V66.084H172.383ZM169.424 65.7031H179.863L180.059 68.7988H179.922L179.219 66.3379C178.496 66.2988 177.891 66.2793 177.402 66.2793C176.172 66.2793 175.137 66.3737 174.297 66.5625C174.245 67.0117 174.196 67.6302 174.15 68.418C174.105 69.2057 174.082 69.8079 174.082 70.2246C174.082 70.6803 174.108 71.3444 174.16 72.2168C174.766 72.2884 175.472 72.3242 176.279 72.3242C177.132 72.3242 177.839 72.2884 178.398 72.2168L178.877 70.5371H179.004V74.7168H178.877L178.398 72.9395C178.027 72.9004 177.669 72.8743 177.324 72.8613C176.986 72.8483 176.631 72.8418 176.26 72.8418C175.908 72.8418 175.202 72.8743 174.141 72.9395C174.102 73.623 174.082 74.3229 174.082 75.0391C174.082 75.5404 174.108 76.2858 174.16 77.2754C174.212 78.2585 174.277 79.0202 174.355 79.5605L176.797 79.9023V80H169.424V79.9023L171.777 79.5605C171.875 78.877 171.953 77.9557 172.012 76.7969C172.07 75.638 172.1 74.6647 172.1 73.877V71.1621C172.1 70.8236 172.087 70.3255 172.061 69.668C172.041 69.0039 172.012 68.3594 171.973 67.7344C171.94 67.1029 171.888 66.5788 171.816 66.1621L169.424 65.8008V65.7031ZM183.828 66.084V79.6191H184.502V66.084H183.828ZM180.859 65.8008V65.7031H191.26L191.504 68.7402H191.348L190.645 66.3574C190.091 66.3184 189.469 66.2988 188.779 66.2988C187.523 66.2988 186.51 66.3867 185.742 66.5625C185.612 67.6172 185.547 68.8216 185.547 70.1758C185.547 71.0221 185.573 71.709 185.625 72.2363C186.654 72.2949 187.308 72.3242 187.588 72.3242C188.324 72.3242 189.082 72.2819 189.863 72.1973L190.303 70.5371H190.469V74.6973H190.303L189.844 72.9395C189.277 72.8743 188.652 72.8418 187.969 72.8418C187.109 72.8418 186.328 72.8809 185.625 72.959C185.54 73.7142 185.514 74.4531 185.547 75.1758C185.56 76.1003 185.576 76.8652 185.596 77.4707C185.615 78.0697 185.651 78.5872 185.703 79.0234C186.497 79.2643 187.539 79.3848 188.828 79.3848C189.57 79.3848 190.195 79.3555 190.703 79.2969L191.484 76.9434H191.621L191.406 80H180.889V79.9023L183.223 79.5605C183.275 79.2936 183.32 78.8867 183.359 78.3398C183.405 77.793 183.444 77.181 183.477 76.5039C183.509 75.8203 183.532 75.2507 183.545 74.7949C183.558 74.3327 183.564 73.929 183.564 73.584V71.123C183.564 70.8105 183.555 70.3678 183.535 69.7949C183.516 69.2155 183.486 68.6165 183.447 67.998C183.408 67.3796 183.353 66.7611 183.281 66.1426L180.859 65.8008ZM195.293 66.084V79.6191H195.967V66.084H195.293ZM192.324 65.8008V65.7031H202.725L202.969 68.7402H202.812L202.109 66.3574C201.556 66.3184 200.934 66.2988 200.244 66.2988C198.988 66.2988 197.975 66.3867 197.207 66.5625C197.077 67.6172 197.012 68.8216 197.012 70.1758C197.012 71.0221 197.038 71.709 197.09 72.2363C198.118 72.2949 198.773 72.3242 199.053 72.3242C199.788 72.3242 200.547 72.2819 201.328 72.1973L201.768 70.5371H201.934V74.6973H201.768L201.309 72.9395C200.742 72.8743 200.117 72.8418 199.434 72.8418C198.574 72.8418 197.793 72.8809 197.09 72.959C197.005 73.7142 196.979 74.4531 197.012 75.1758C197.025 76.1003 197.041 76.8652 197.061 77.4707C197.08 78.0697 197.116 78.5872 197.168 79.0234C197.962 79.2643 199.004 79.3848 200.293 79.3848C201.035 79.3848 201.66 79.3555 202.168 79.2969L202.949 76.9434H203.086L202.871 80H192.354V79.9023L194.688 79.5605C194.74 79.2936 194.785 78.8867 194.824 78.3398C194.87 77.793 194.909 77.181 194.941 76.5039C194.974 75.8203 194.997 75.2507 195.01 74.7949C195.023 74.3327 195.029 73.929 195.029 73.584V71.123C195.029 70.8105 195.02 70.3678 195 69.7949C194.98 69.2155 194.951 68.6165 194.912 67.998C194.873 67.3796 194.818 66.7611 194.746 66.1426L192.324 65.8008ZM224.805 73.0957L223.164 73.418C222.988 74.0625 222.9 74.6549 222.9 75.1953C222.9 75.6185 222.884 75.9831 222.852 76.2891C222.819 76.5885 222.689 76.9401 222.461 77.3438C222.936 77.7669 223.298 78.0827 223.545 78.291C223.792 78.4928 224.072 78.6882 224.385 78.877C224.697 79.0658 224.971 79.1602 225.205 79.1602C225.329 79.1602 225.452 79.1276 225.576 79.0625C225.7 78.9974 225.788 78.8965 225.84 78.7598H225.957C225.918 79.209 225.736 79.554 225.41 79.7949C225.091 80.0358 224.72 80.1562 224.297 80.1562C223.809 80.1562 223.372 80.0651 222.988 79.8828C222.611 79.694 222.096 79.3262 221.445 78.7793C220.97 79.196 220.43 79.5312 219.824 79.7852C219.219 80.0326 218.496 80.1562 217.656 80.1562C216.66 80.1562 215.807 80.026 215.098 79.7656C214.395 79.5052 213.835 79.1699 213.418 78.7598C213.001 78.3496 212.705 77.9199 212.529 77.4707C212.354 77.015 212.266 76.5918 212.266 76.2012C212.266 75.2246 212.539 74.4303 213.086 73.8184C213.639 73.2064 214.43 72.6074 215.459 72.0215C215.251 71.6439 215.081 71.3249 214.951 71.0645C214.827 70.7975 214.723 70.4915 214.639 70.1465C214.561 69.8014 214.521 69.4076 214.521 68.9648C214.521 68.2682 214.674 67.6628 214.98 67.1484C215.293 66.6341 215.713 66.2435 216.24 65.9766C216.774 65.7096 217.354 65.5762 217.979 65.5762C218.857 65.5762 219.538 65.8073 220.02 66.2695C220.501 66.7253 220.742 67.3014 220.742 67.998C220.742 68.8509 220.433 69.5475 219.814 70.0879C219.202 70.6283 218.379 71.1458 217.344 71.6406C217.839 72.3633 218.366 73.0469 218.926 73.6914C219.492 74.3294 220.231 75.1107 221.143 76.0352V75.1562C221.143 74.5052 221.055 73.9258 220.879 73.418L219.717 73.0762V72.9785H224.805V73.0957ZM217.578 66.2207C217.122 66.2207 216.729 66.39 216.396 66.7285C216.064 67.0671 215.898 67.5391 215.898 68.1445C215.898 68.5677 215.999 69.0462 216.201 69.5801C216.403 70.1074 216.663 70.6022 216.982 71.0645C217.425 70.8105 217.799 70.5078 218.105 70.1562C218.411 69.7982 218.643 69.4206 218.799 69.0234C218.962 68.6198 219.043 68.2194 219.043 67.8223C219.043 67.4642 218.975 67.1647 218.838 66.9238C218.708 66.6764 218.532 66.4974 218.311 66.3867C218.096 66.276 217.852 66.2207 217.578 66.2207ZM221.416 73.3594V75.8594C221.416 76.5234 221.338 77.0247 221.182 77.3633C219.255 75.5469 217.773 73.903 216.738 72.4316C215.703 70.9538 215.186 69.6289 215.186 68.457C215.186 68.0794 215.231 67.7572 215.322 67.4902C215.413 67.2168 215.534 66.9661 215.684 66.7383H215.557C215.309 66.9857 215.114 67.3112 214.971 67.7148C214.834 68.112 214.766 68.5482 214.766 69.0234C214.766 69.8177 215.029 70.6999 215.557 71.6699C216.084 72.6335 216.794 73.623 217.686 74.6387C218.584 75.6543 219.661 76.7546 220.918 77.9395C220.417 78.7467 219.671 79.3066 218.682 79.6191L218.701 79.7168C219.248 79.5801 219.72 79.401 220.117 79.1797C220.514 78.9518 220.895 78.6458 221.26 78.2617C221.943 78.8411 222.493 79.2676 222.91 79.541C223.327 79.8079 223.783 79.9414 224.277 79.9414C224.479 79.9414 224.727 79.8861 225.02 79.7754V79.6777H224.766C224.453 79.6777 224.141 79.6061 223.828 79.4629C223.522 79.3132 223.219 79.1211 222.92 78.8867C222.627 78.6458 222.194 78.2715 221.621 77.7637C221.927 77.1842 222.08 76.4844 222.08 75.6641V73.3594H221.416ZM218.34 66.0645V66.1426C218.529 66.2142 218.704 66.3346 218.867 66.5039C219.03 66.6732 219.157 66.875 219.248 67.1094C219.339 67.3372 219.385 67.5814 219.385 67.8418C219.385 68.4668 219.176 69.0951 218.76 69.7266C218.35 70.3581 217.79 70.8757 217.08 71.2793L217.139 71.377C217.979 70.9473 218.652 70.4329 219.16 69.834C219.668 69.235 219.922 68.6296 219.922 68.0176C219.922 67.4837 219.759 67.0508 219.434 66.7188C219.108 66.3802 218.743 66.1621 218.34 66.0645ZM215.801 72.5977C215.43 72.819 215.088 73.1738 214.775 73.6621C214.469 74.1504 214.316 74.7428 214.316 75.4395C214.316 76.0059 214.411 76.5397 214.6 77.041C214.795 77.5423 215.055 77.9785 215.381 78.3496C215.713 78.7142 216.087 78.9974 216.504 79.1992C216.927 79.401 217.354 79.502 217.783 79.502C218.298 79.502 218.805 79.3652 219.307 79.0918C219.814 78.8184 220.231 78.4473 220.557 77.9785C219.515 76.9694 218.617 76.0612 217.861 75.2539C217.113 74.4401 216.426 73.5547 215.801 72.5977ZM215.605 72.3242L215.537 72.1973C214.723 72.6921 214.102 73.1641 213.672 73.6133C213.249 74.0625 212.962 74.4954 212.812 74.9121C212.669 75.3223 212.598 75.7389 212.598 76.1621C212.598 76.8457 212.796 77.4707 213.193 78.0371C213.597 78.597 214.173 79.0527 214.922 79.4043C215.677 79.7493 216.523 79.9349 217.461 79.9609V79.8438C216.628 79.7852 215.892 79.5605 215.254 79.1699C214.622 78.7793 214.131 78.2878 213.779 77.6953C213.434 77.1029 213.262 76.4974 213.262 75.8789C213.262 75.4948 213.33 75.0977 213.467 74.6875C213.61 74.2773 213.861 73.8639 214.219 73.4473C214.583 73.0241 215.046 72.6497 215.605 72.3242ZM236.621 66.084V79.6387H237.295V66.084H236.621ZM233.662 65.7031H244.102L244.297 68.7988H244.16L243.457 66.3379C242.734 66.2988 242.129 66.2793 241.641 66.2793C240.41 66.2793 239.375 66.3737 238.535 66.5625C238.483 67.0117 238.434 67.6302 238.389 68.418C238.343 69.2057 238.32 69.8079 238.32 70.2246C238.32 70.6803 238.346 71.3444 238.398 72.2168C239.004 72.2884 239.71 72.3242 240.518 72.3242C241.37 72.3242 242.077 72.2884 242.637 72.2168L243.115 70.5371H243.242V74.7168H243.115L242.637 72.9395C242.266 72.9004 241.908 72.8743 241.562 72.8613C241.224 72.8483 240.869 72.8418 240.498 72.8418C240.146 72.8418 239.44 72.8743 238.379 72.9395C238.34 73.623 238.32 74.3229 238.32 75.0391C238.32 75.5404 238.346 76.2858 238.398 77.2754C238.451 78.2585 238.516 79.0202 238.594 79.5605L241.035 79.9023V80H233.662V79.9023L236.016 79.5605C236.113 78.877 236.191 77.9557 236.25 76.7969C236.309 75.638 236.338 74.6647 236.338 73.877V71.1621C236.338 70.8236 236.325 70.3255 236.299 69.668C236.279 69.0039 236.25 68.3594 236.211 67.7344C236.178 67.1029 236.126 66.5788 236.055 66.1621L233.662 65.8008V65.7031ZM253.623 65.498C255.01 65.498 256.211 65.7292 257.227 66.1914C258.242 66.6536 259.072 67.2591 259.717 68.0078C260.368 68.7565 260.843 69.554 261.143 70.4004C261.449 71.2402 261.602 72.0475 261.602 72.8223C261.602 73.7077 261.429 74.5768 261.084 75.4297C260.745 76.2826 260.241 77.0638 259.57 77.7734C258.906 78.4766 258.079 79.0397 257.09 79.4629C256.107 79.8861 255.01 80.0977 253.799 80.0977C252.048 80.0977 250.563 79.7201 249.346 78.9648C248.128 78.2031 247.23 77.2624 246.65 76.1426C246.071 75.0228 245.781 73.929 245.781 72.8613C245.781 71.9173 245.964 71.0026 246.328 70.1172C246.699 69.2318 247.233 68.4408 247.93 67.7441C248.633 67.041 249.473 66.4909 250.449 66.0938C251.426 65.6966 252.484 65.498 253.623 65.498ZM253.682 66.1816C252.673 66.1816 251.738 66.4453 250.879 66.9727C250.026 67.5 249.346 68.2617 248.838 69.2578C248.337 70.2539 248.086 71.429 248.086 72.7832C248.086 74.2415 248.359 75.4753 248.906 76.4844C249.46 77.487 250.166 78.2324 251.025 78.7207C251.891 79.2025 252.783 79.4434 253.701 79.4434C254.45 79.4434 255.16 79.3001 255.83 79.0137C256.501 78.7272 257.1 78.3105 257.627 77.7637C258.154 77.2103 258.564 76.5332 258.857 75.7324C259.157 74.9251 259.307 74.0267 259.307 73.0371C259.307 71.6829 259.15 70.6022 258.838 69.7949C258.525 68.9876 258.066 68.2812 257.461 67.6758C256.947 67.1615 256.361 66.7839 255.703 66.543C255.052 66.3021 254.378 66.1816 253.682 66.1816ZM254.18 65.7812V65.8789C254.811 65.9245 255.446 66.0742 256.084 66.3281C256.722 66.5755 257.318 66.9661 257.871 67.5C258.431 68.0273 258.88 68.7402 259.219 69.6387C259.557 70.5371 259.727 71.6178 259.727 72.8809C259.727 73.7077 259.626 74.4987 259.424 75.2539C259.229 76.0091 258.91 76.7057 258.467 77.3438C258.031 77.9818 257.458 78.5091 256.748 78.9258C256.038 79.3424 255.189 79.5996 254.199 79.6973V79.8047C255.033 79.7656 255.824 79.5866 256.572 79.2676C257.321 78.9486 257.985 78.4928 258.564 77.9004C259.15 77.3014 259.613 76.5723 259.951 75.7129C260.29 74.8535 260.459 73.8965 260.459 72.8418C260.459 71.6895 260.283 70.6738 259.932 69.7949C259.58 68.9095 259.102 68.1738 258.496 67.5879C257.891 67.002 257.217 66.5592 256.475 66.2598C255.739 65.9603 254.974 65.8008 254.18 65.7812ZM253.223 65.8789V65.7812C252.311 65.7878 251.423 65.9831 250.557 66.3672C249.691 66.7513 248.929 67.2721 248.271 67.9297C247.614 68.5872 247.1 69.3359 246.729 70.1758C246.364 71.0156 246.182 71.8978 246.182 72.8223C246.182 73.9551 246.488 75.0586 247.1 76.1328C247.718 77.2005 248.571 78.0697 249.658 78.7402C250.745 79.4108 251.94 79.7656 253.242 79.8047V79.6973C251.979 79.5866 250.863 79.1927 249.893 78.5156C248.923 77.8385 248.184 76.9987 247.676 75.9961C247.174 74.9935 246.924 73.9551 246.924 72.8809C246.924 71.9954 247.07 71.1458 247.363 70.332C247.656 69.5182 248.079 68.7923 248.633 68.1543C249.186 67.5163 249.854 66.9987 250.635 66.6016C251.423 66.2044 252.285 65.9635 253.223 65.8789ZM270.928 65.498C272.314 65.498 273.516 65.7292 274.531 66.1914C275.547 66.6536 276.377 67.2591 277.021 68.0078C277.673 68.7565 278.148 69.554 278.447 70.4004C278.753 71.2402 278.906 72.0475 278.906 72.8223C278.906 73.7077 278.734 74.5768 278.389 75.4297C278.05 76.2826 277.546 77.0638 276.875 77.7734C276.211 78.4766 275.384 79.0397 274.395 79.4629C273.411 79.8861 272.314 80.0977 271.104 80.0977C269.352 80.0977 267.868 79.7201 266.65 78.9648C265.433 78.2031 264.535 77.2624 263.955 76.1426C263.376 75.0228 263.086 73.929 263.086 72.8613C263.086 71.9173 263.268 71.0026 263.633 70.1172C264.004 69.2318 264.538 68.4408 265.234 67.7441C265.938 67.041 266.777 66.4909 267.754 66.0938C268.73 65.6966 269.788 65.498 270.928 65.498ZM270.986 66.1816C269.977 66.1816 269.043 66.4453 268.184 66.9727C267.331 67.5 266.65 68.2617 266.143 69.2578C265.641 70.2539 265.391 71.429 265.391 72.7832C265.391 74.2415 265.664 75.4753 266.211 76.4844C266.764 77.487 267.471 78.2324 268.33 78.7207C269.196 79.2025 270.088 79.4434 271.006 79.4434C271.755 79.4434 272.464 79.3001 273.135 79.0137C273.805 78.7272 274.404 78.3105 274.932 77.7637C275.459 77.2103 275.869 76.5332 276.162 75.7324C276.462 74.9251 276.611 74.0267 276.611 73.0371C276.611 71.6829 276.455 70.6022 276.143 69.7949C275.83 68.9876 275.371 68.2812 274.766 67.6758C274.251 67.1615 273.665 66.7839 273.008 66.543C272.357 66.3021 271.683 66.1816 270.986 66.1816ZM271.484 65.7812V65.8789C272.116 65.9245 272.751 66.0742 273.389 66.3281C274.027 66.5755 274.622 66.9661 275.176 67.5C275.736 68.0273 276.185 68.7402 276.523 69.6387C276.862 70.5371 277.031 71.6178 277.031 72.8809C277.031 73.7077 276.93 74.4987 276.729 75.2539C276.533 76.0091 276.214 76.7057 275.771 77.3438C275.335 77.9818 274.762 78.5091 274.053 78.9258C273.343 79.3424 272.493 79.5996 271.504 79.6973V79.8047C272.337 79.7656 273.128 79.5866 273.877 79.2676C274.626 78.9486 275.29 78.4928 275.869 77.9004C276.455 77.3014 276.917 76.5723 277.256 75.7129C277.594 74.8535 277.764 73.8965 277.764 72.8418C277.764 71.6895 277.588 70.6738 277.236 69.7949C276.885 68.9095 276.406 68.1738 275.801 67.5879C275.195 67.002 274.521 66.5592 273.779 66.2598C273.044 65.9603 272.279 65.8008 271.484 65.7812ZM270.527 65.8789V65.7812C269.616 65.7878 268.727 65.9831 267.861 66.3672C266.995 66.7513 266.234 67.2721 265.576 67.9297C264.919 68.5872 264.404 69.3359 264.033 70.1758C263.669 71.0156 263.486 71.8978 263.486 72.8223C263.486 73.9551 263.792 75.0586 264.404 76.1328C265.023 77.2005 265.876 78.0697 266.963 78.7402C268.05 79.4108 269.245 79.7656 270.547 79.8047V79.6973C269.284 79.5866 268.167 79.1927 267.197 78.5156C266.227 77.8385 265.488 76.9987 264.98 75.9961C264.479 74.9935 264.229 73.9551 264.229 72.8809C264.229 71.9954 264.375 71.1458 264.668 70.332C264.961 69.5182 265.384 68.7923 265.938 68.1543C266.491 67.5163 267.158 66.9987 267.939 66.6016C268.727 66.2044 269.59 65.9635 270.527 65.8789ZM279.854 65.7031H287.891C289.388 65.7031 290.661 65.9212 291.709 66.3574C292.764 66.7871 293.594 67.3503 294.199 68.0469C294.811 68.7435 295.247 69.502 295.508 70.3223C295.775 71.1426 295.908 71.9759 295.908 72.8223C295.908 73.8509 295.736 74.8079 295.391 75.6934C295.052 76.5723 294.561 77.3372 293.916 77.9883C293.278 78.6328 292.523 79.1309 291.65 79.4824C290.785 79.8275 289.831 80 288.789 80H279.795V79.9023L282.168 79.5605C282.279 79.0072 282.367 78.0924 282.432 76.8164C282.497 75.5339 282.529 74.528 282.529 73.7988V71.2402C282.529 69.3457 282.445 67.653 282.275 66.1621L279.854 65.8008V65.7031ZM284.492 70.5957V76.2988C284.492 77.1387 284.538 77.9915 284.629 78.8574C285.046 79.0527 285.518 79.196 286.045 79.2871C286.572 79.3783 287.1 79.4238 287.627 79.4238C288.356 79.4238 289.076 79.2871 289.785 79.0137C290.495 78.7337 291.133 78.3236 291.699 77.7832C292.272 77.2428 292.731 76.556 293.076 75.7227C293.421 74.8828 293.594 73.9225 293.594 72.8418C293.594 71.709 293.411 70.7292 293.047 69.9023C292.682 69.069 292.178 68.3887 291.533 67.8613C290.895 67.3275 290.163 66.9336 289.336 66.6797C288.509 66.4258 287.64 66.2988 286.729 66.2988C285.993 66.2988 285.329 66.3802 284.736 66.543C284.697 66.7904 284.658 67.1452 284.619 67.6074C284.587 68.0632 284.557 68.6003 284.531 69.2188C284.505 69.8372 284.492 70.2962 284.492 70.5957ZM282.812 66.084V79.6191H283.496V66.084H282.812ZM286.348 65.9375V66.0352C287.292 66.0352 288.138 66.1165 288.887 66.2793C289.642 66.4421 290.273 66.6634 290.781 66.9434C291.296 67.2233 291.738 67.5488 292.109 67.9199C292.493 68.304 292.822 68.7467 293.096 69.248C293.376 69.7493 293.594 70.306 293.75 70.918C293.913 71.5299 293.994 72.1777 293.994 72.8613C293.994 74.3783 293.669 75.651 293.018 76.6797C292.367 77.7083 291.566 78.4635 290.615 78.9453C289.665 79.4206 288.763 79.6582 287.91 79.6582H287.168V79.7559H287.91C289.329 79.7559 290.557 79.4466 291.592 78.8281C292.633 78.2031 293.421 77.3665 293.955 76.3184C294.489 75.2637 294.756 74.1243 294.756 72.9004C294.756 71.8066 294.564 70.8333 294.18 69.9805C293.802 69.1211 293.327 68.4082 292.754 67.8418C291.523 66.5723 289.583 65.9375 286.934 65.9375H286.348Z" fill="#9C9C9C"/>
<path d="M13.9404 10.3066H13.1592C11.3688 10.3066 9.7168 10.6647 8.20312 11.3809C6.68945 12.097 5.49316 13.1143 4.61426 14.4326C3.73535 15.751 3.2959 17.2402 3.2959 18.9004C3.2959 20.9674 4.19922 22.9043 6.00586 24.7109C6.80339 25.4759 7.54395 26.1188 8.22754 26.6396C8.92741 27.1605 9.97721 27.901 11.377 28.8613C12.7767 29.8053 13.8916 30.5866 14.7217 31.2051C15.568 31.8073 16.2598 32.3851 16.7969 32.9385C18.2617 34.4033 18.9941 36.0391 18.9941 37.8457C18.9941 39.0827 18.6523 40.279 17.9688 41.4346C17.3014 42.5739 16.3249 43.5098 15.0391 44.2422C13.7695 44.9583 12.2721 45.3245 10.5469 45.3408V45.6094C12.5326 45.6745 14.2985 45.3245 15.8447 44.5596C17.4072 43.7946 18.5954 42.7855 19.4092 41.5322C20.2393 40.279 20.6543 38.985 20.6543 37.6504C20.6543 36.4948 20.4671 35.445 20.0928 34.501C19.7184 33.557 19.0348 32.5885 18.042 31.5957C17.4723 31.026 16.4469 30.2367 14.9658 29.2275C13.4847 28.2021 11.9873 27.1768 10.4736 26.1514C8.95996 25.1097 7.85319 24.2552 7.15332 23.5879C5.44434 21.8952 4.58984 20.0316 4.58984 17.9971C4.58984 16.2067 5.36296 14.5384 6.90918 12.9922C8.47168 11.446 10.8154 10.6322 13.9404 10.5508V10.3066ZM2.00195 37.4551L3.85742 43.4609C4.78516 43.8841 5.86751 44.2259 7.10449 44.4863C8.35775 44.7467 9.4401 44.8688 10.3516 44.8525C11.5723 44.8525 12.6872 44.641 13.6963 44.2178C14.7217 43.7946 15.5518 43.2575 16.1865 42.6064C16.8376 41.9554 17.334 41.223 17.6758 40.4092C18.0176 39.5791 18.1885 38.7734 18.1885 37.9922C18.1885 36.3809 17.6432 35.0218 16.5527 33.915C15.4622 32.8083 13.6312 31.3923 11.0596 29.667C8.50423 27.9417 6.64876 26.5013 5.49316 25.3457C4.50033 24.3203 3.75977 23.2949 3.27148 22.2695C2.7832 21.2279 2.53906 20.0723 2.53906 18.8027C2.53906 17.403 2.92155 16.0114 3.68652 14.6279C4.4515 13.2445 5.63151 12.097 7.22656 11.1855C8.82161 10.2578 10.7829 9.79395 13.1104 9.79395C14.1683 9.79395 15.2913 9.85091 16.4795 9.96484C17.6676 10.0625 18.4896 10.1113 18.9453 10.1113C19.3359 10.0951 19.7021 10.0869 20.0439 10.0869C20.3857 10.0706 20.6543 10.0544 20.8496 10.0381C21.0612 10.0055 21.2809 9.97298 21.5088 9.94043L21.6553 18.29H21.3379L19.7998 12.6504C17.5374 11.6576 15.568 11.1611 13.8916 11.1611C12.4919 11.1611 11.2305 11.4297 10.1074 11.9668C9.00065 12.4876 8.13802 13.2119 7.51953 14.1396C6.90104 15.0511 6.5918 16.0846 6.5918 17.2402C6.5918 18.4447 7.00684 19.5514 7.83691 20.5605C8.66699 21.5534 9.79818 22.5299 11.2305 23.4902C12.679 24.4505 14.2253 25.4678 15.8691 26.542C17.5293 27.6162 18.8558 28.6497 19.8486 29.6426C21.7855 31.5794 22.7539 33.8174 22.7539 36.3564C22.7539 37.7887 22.3796 39.2699 21.6309 40.7998C20.8822 42.3135 19.6208 43.5993 17.8467 44.6572C16.0726 45.7152 13.7777 46.2441 10.9619 46.2441C9.96908 46.2441 8.75651 46.1872 7.32422 46.0732C5.9082 45.9593 4.86654 45.9023 4.19922 45.9023C3.88997 45.9023 3.64583 45.9105 3.4668 45.9268C3.30404 45.943 3.04362 45.9674 2.68555 46C2.32747 46.0326 2.11589 46.0488 2.05078 46.0488L1.66016 37.4551H2.00195ZM45.7764 9.74512C49.2432 9.74512 52.2461 10.3229 54.7852 11.4785C57.3242 12.6341 59.3994 14.1478 61.0107 16.0195C62.6383 17.8913 63.8265 19.8851 64.5752 22.001C65.3402 24.1006 65.7227 26.1188 65.7227 28.0557C65.7227 30.2692 65.2913 32.4421 64.4287 34.5742C63.5824 36.7064 62.321 38.6595 60.6445 40.4336C58.9844 42.1914 56.9173 43.5993 54.4434 44.6572C51.9857 45.7152 49.2432 46.2441 46.2158 46.2441C41.8376 46.2441 38.1266 45.3001 35.083 43.4121C32.0394 41.5078 29.7933 39.1559 28.3447 36.3564C26.8962 33.557 26.1719 30.8226 26.1719 28.1533C26.1719 25.7933 26.6276 23.5065 27.5391 21.293C28.4668 19.0794 29.8014 17.1019 31.543 15.3604C33.3008 13.6025 35.4004 12.2272 37.8418 11.2344C40.2832 10.2415 42.9281 9.74512 45.7764 9.74512ZM45.9229 11.4541C43.4001 11.4541 41.0645 12.1133 38.916 13.4316C36.7839 14.75 35.083 16.6543 33.8135 19.1445C32.5602 21.6348 31.9336 24.5726 31.9336 27.958C31.9336 31.6038 32.6172 34.6882 33.9844 37.2109C35.3678 39.7174 37.1338 41.5811 39.2822 42.8018C41.4469 44.0062 43.6768 44.6084 45.9717 44.6084C47.8434 44.6084 49.6175 44.2503 51.2939 43.5342C52.9704 42.818 54.4678 41.7764 55.7861 40.4092C57.1045 39.0257 58.1299 37.333 58.8623 35.3311C59.611 33.3128 59.9854 31.0667 59.9854 28.5928C59.9854 25.2074 59.5947 22.5055 58.8135 20.4873C58.0322 18.4691 56.8848 16.7031 55.3711 15.1895C54.0853 13.9036 52.6204 12.9596 50.9766 12.3574C49.349 11.7552 47.6644 11.4541 45.9229 11.4541ZM47.168 10.4531V10.6973C48.7467 10.8112 50.3337 11.1855 51.9287 11.8203C53.5238 12.4388 55.013 13.4154 56.3965 14.75C57.7962 16.0684 58.9193 17.8506 59.7656 20.0967C60.612 22.3428 61.0352 25.0446 61.0352 28.2021C61.0352 30.2692 60.7829 32.2467 60.2783 34.1348C59.79 36.0228 58.9925 37.7643 57.8857 39.3594C56.7952 40.9544 55.363 42.2728 53.5889 43.3145C51.8148 44.3561 49.6908 44.999 47.2168 45.2432V45.5117C49.3001 45.4141 51.2777 44.9665 53.1494 44.1689C55.0212 43.3714 56.6813 42.2321 58.1299 40.751C59.5947 39.2536 60.7503 37.4307 61.5967 35.2822C62.443 33.1338 62.8662 30.7412 62.8662 28.1045C62.8662 25.2236 62.4268 22.6846 61.5479 20.4873C60.6689 18.2738 59.4727 16.4346 57.959 14.9697C56.4453 13.5049 54.7607 12.3981 52.9053 11.6494C51.0661 10.9007 49.1536 10.502 47.168 10.4531ZM44.7754 10.6973V10.4531C42.4967 10.4694 40.2751 10.9577 38.1104 11.918C35.9456 12.8783 34.0413 14.1803 32.3975 15.8242C30.7536 17.4681 29.4678 19.3398 28.54 21.4395C27.6286 23.5391 27.1729 25.7445 27.1729 28.0557C27.1729 30.8877 27.9378 33.6465 29.4678 36.332C31.014 39.0013 33.1462 41.1742 35.8643 42.8506C38.5824 44.527 41.569 45.4141 44.8242 45.5117V45.2432C41.6667 44.9665 38.8753 43.9818 36.4502 42.2891C34.0251 40.5964 32.1777 38.4967 30.9082 35.9902C29.6549 33.4837 29.0283 30.8877 29.0283 28.2021C29.0283 25.9886 29.3945 23.8646 30.127 21.8301C30.8594 19.7956 31.9173 17.9808 33.3008 16.3857C34.6842 14.7907 36.3525 13.4967 38.3057 12.5039C40.2751 11.5111 42.4316 10.9089 44.7754 10.6973ZM73.6328 11.21L82.7393 43.1436H82.8369L83.6426 40.7998L75.2441 11.21H73.6328ZM95.6299 15.1406L94.8975 17.1426L106.738 43.3389L107.446 41.1416L95.6299 15.1406ZM85.8887 10.502L78.9307 11.4053C78.9307 12.5771 79.126 14.2617 79.5166 16.459C79.9235 18.6562 80.3792 20.6338 80.8838 22.3916L83.2275 30.4482C83.7484 32.3037 84.3994 34.2406 85.1807 36.2588C86.6781 33.085 87.8662 30.3994 88.7451 28.2021L92.9443 17.7529C94.4255 13.9281 95.3532 11.3076 95.7275 9.8916H96.1914C96.3867 10.3473 96.7773 11.3239 97.3633 12.8213C97.9492 14.3187 98.4863 15.6452 98.9746 16.8008L104.883 29.7402C105.794 31.8398 106.942 34.208 108.325 36.8447C108.846 35.5426 109.652 33.1094 110.742 29.5449L113.525 19.7061C113.916 18.404 114.258 17.0042 114.551 15.5068C114.844 14.0094 115.055 12.6097 115.186 11.3076L108.081 10.502V10.2578H122.437V10.502L118.091 11.3564C117.554 12.6097 117.033 13.9606 116.528 15.4092C116.024 16.8577 115.527 18.4528 115.039 20.1943L110.693 35.209C109.977 37.7155 109.326 40.043 108.74 42.1914C108.171 44.3236 107.788 45.9105 107.593 46.9521H107.178C107.015 46.4801 106.779 45.8291 106.47 44.999C106.16 44.1689 105.916 43.5179 105.737 43.0459C105.558 42.5739 105.322 41.9961 105.029 41.3125C104.736 40.6126 104.435 39.9453 104.126 39.3105L97.29 24.0518C95.8903 21.1709 94.987 19.3561 94.5801 18.6074C94.2383 19.1283 93.7419 20.1455 93.0908 21.6592C92.4561 23.1729 92.0898 24.0843 91.9922 24.3936L86.2793 38.5049C85.8887 39.4652 85.5387 40.3604 85.2295 41.1904C84.9365 42.0042 84.6191 42.875 84.2773 43.8027C83.9518 44.7142 83.5856 45.764 83.1787 46.9521H82.7881C82.4951 45.3083 81.7464 42.3053 80.542 37.9434L75.9277 21.708C74.8535 17.932 73.6572 14.4814 72.3389 11.3564L68.0908 10.502V10.2578H85.8887V10.502ZM135.84 14.7012L148.511 45.0479H150.146L136.646 12.6504L135.84 14.7012ZM135.449 16.752C135.01 17.6146 134.424 18.876 133.691 20.5361C132.975 22.1963 132.324 23.7507 131.738 25.1992C131.152 26.6478 130.542 28.194 129.907 29.8379C129.272 31.4655 128.849 32.5397 128.638 33.0605C129.598 33.1908 130.713 33.2803 131.982 33.3291C133.268 33.3779 134.489 33.4023 135.645 33.4023C138.493 33.4023 140.828 33.2884 142.651 33.0605C142.033 31.2214 140.983 28.609 139.502 25.2236C138.021 21.8219 136.67 18.998 135.449 16.752ZM138.037 9.8916L148.608 35.1113C149.976 38.3991 151.571 41.6624 153.394 44.9014L157.446 45.7559V46H140.21V45.7559L146.851 44.9014C146.606 43.29 146.151 41.5404 145.483 39.6523C144.832 37.748 144.108 36.096 143.311 34.6963H128.003C127.352 36.3402 126.823 37.6911 126.416 38.749C126.025 39.807 125.643 40.9056 125.269 42.0449C124.91 43.1842 124.674 44.1364 124.561 44.9014L130.957 45.7559V46H117.31V45.7559L121.802 44.9014C122.892 43.0133 123.893 40.93 124.805 38.6514L136.108 9.8916H138.037ZM157.983 10.502V10.2578H170.312C171.126 11.3646 172.176 12.6992 173.462 14.2617C174.764 15.8242 175.92 17.167 176.929 18.29L187.866 30.4482C189.315 32.027 190.438 33.2477 191.235 34.1104C192.049 34.973 193.099 36.0228 194.385 37.2598C194.482 36.1367 194.548 35.0869 194.58 34.1104C194.613 33.1338 194.629 32.2142 194.629 31.3516V20.8047C194.629 17.0124 194.442 13.8792 194.067 11.4053L188.135 10.502V10.2578H202.661V10.502L196.729 11.4541C196.419 13.7327 196.265 16.6462 196.265 20.1943V46.9521H196.021C193.53 43.7946 191.064 40.8405 188.623 38.0898L173.682 21.4395C171.468 19.0794 169.58 17.1995 168.018 15.7998C167.79 18.0133 167.676 20.0804 167.676 22.001V37.4551C167.676 39.5221 167.839 41.988 168.164 44.8525L174.365 45.7559V46H159.521V45.7559L165.527 44.9014C165.723 43.7295 165.861 42.0612 165.942 39.8965C166.024 37.7318 166.064 35.8031 166.064 34.1104V22.1475C166.064 20.7314 166.04 19.3317 165.991 17.9482C165.942 16.5485 165.853 15.165 165.723 13.7979L162.476 11.4053L157.983 10.502ZM165.283 11.1611L194.775 43.9492V41.6543L167.334 11.1611H165.283ZM246.802 10.3555H243.945C241.113 10.3555 238.509 10.8275 236.133 11.7715C233.773 12.6992 231.771 14.0013 230.127 15.6777C228.499 17.3379 227.262 19.2585 226.416 21.4395C225.57 23.6204 225.146 25.9561 225.146 28.4463C225.146 30.7249 225.578 32.9059 226.44 34.9893C227.319 37.0563 228.605 38.9036 230.298 40.5312C232.007 42.1426 234.041 43.404 236.401 44.3154C238.761 45.2106 241.398 45.6582 244.312 45.6582C245.614 45.6582 246.444 45.6419 246.802 45.6094V45.292C243.563 45.3571 240.674 44.9339 238.135 44.0225C235.612 43.0947 233.529 41.8089 231.885 40.165C230.241 38.5049 229.012 36.6331 228.198 34.5498C227.401 32.4665 227.002 30.3506 227.002 28.2021C227.002 26.0863 227.352 24.0029 228.052 21.9521C228.752 19.9014 229.826 18.0215 231.274 16.3125C232.739 14.6035 234.627 13.2445 236.938 12.2354C239.25 11.21 241.968 10.6973 245.093 10.6973H246.802V10.3555ZM257.861 39.4082L254.248 46.0977C252.686 45.9674 251.554 45.9023 250.854 45.9023C249.992 45.9023 248.828 45.9674 247.363 46.0977C245.898 46.2279 244.759 46.293 243.945 46.293C240.658 46.293 237.744 45.7884 235.205 44.7793C232.682 43.7539 230.599 42.3786 228.955 40.6533C227.311 38.9118 226.09 36.9993 225.293 34.916C224.495 32.8164 224.097 30.6924 224.097 28.5439C224.097 25.7933 224.561 23.2624 225.488 20.9512C226.432 18.6237 227.759 16.6299 229.468 14.9697C231.177 13.2933 233.171 12.0156 235.449 11.1367C237.728 10.2415 240.177 9.79395 242.798 9.79395C243.481 9.79395 243.913 9.80208 244.092 9.81836C244.271 9.81836 244.661 9.83464 245.264 9.86719C245.866 9.88346 246.476 9.90788 247.095 9.94043C249.292 10.0869 250.977 10.1602 252.148 10.1602C254.753 10.1602 256.453 10.0869 257.251 9.94043L257.544 18.1436H257.251L255.615 12.6992C255.127 12.5853 254.264 12.4225 253.027 12.2109C251.79 11.9993 250.578 11.8285 249.39 11.6982C248.218 11.568 246.989 11.5029 245.703 11.5029C242.35 11.5029 239.478 12.1784 237.085 13.5293C234.709 14.8639 232.918 16.7682 231.714 19.2422C230.509 21.6999 229.907 24.5319 229.907 27.7383C229.907 30.2285 230.339 32.5234 231.201 34.623C232.064 36.7064 233.268 38.4886 234.814 39.9697C236.361 41.4346 238.118 42.5495 240.088 43.3145C242.074 44.0794 244.165 44.4619 246.362 44.4619C248.543 44.4619 250.586 44.0957 252.49 43.3633C254.395 42.6146 256.095 41.2637 257.593 39.3105L257.861 39.4082ZM281.079 9.74512C284.546 9.74512 287.549 10.3229 290.088 11.4785C292.627 12.6341 294.702 14.1478 296.313 16.0195C297.941 17.8913 299.129 19.8851 299.878 22.001C300.643 24.1006 301.025 26.1188 301.025 28.0557C301.025 30.2692 300.594 32.4421 299.731 34.5742C298.885 36.7064 297.624 38.6595 295.947 40.4336C294.287 42.1914 292.22 43.5993 289.746 44.6572C287.288 45.7152 284.546 46.2441 281.519 46.2441C277.14 46.2441 273.429 45.3001 270.386 43.4121C267.342 41.5078 265.096 39.1559 263.647 36.3564C262.199 33.557 261.475 30.8226 261.475 28.1533C261.475 25.7933 261.93 23.5065 262.842 21.293C263.77 19.0794 265.104 17.1019 266.846 15.3604C268.604 13.6025 270.703 12.2272 273.145 11.2344C275.586 10.2415 278.231 9.74512 281.079 9.74512ZM281.226 11.4541C278.703 11.4541 276.367 12.1133 274.219 13.4316C272.087 14.75 270.386 16.6543 269.116 19.1445C267.863 21.6348 267.236 24.5726 267.236 27.958C267.236 31.6038 267.92 34.6882 269.287 37.2109C270.671 39.7174 272.437 41.5811 274.585 42.8018C276.75 44.0062 278.979 44.6084 281.274 44.6084C283.146 44.6084 284.92 44.2503 286.597 43.5342C288.273 42.818 289.771 41.7764 291.089 40.4092C292.407 39.0257 293.433 37.333 294.165 35.3311C294.914 33.3128 295.288 31.0667 295.288 28.5928C295.288 25.2074 294.897 22.5055 294.116 20.4873C293.335 18.4691 292.188 16.7031 290.674 15.1895C289.388 13.9036 287.923 12.9596 286.279 12.3574C284.652 11.7552 282.967 11.4541 281.226 11.4541ZM282.471 10.4531V10.6973C284.049 10.8112 285.636 11.1855 287.231 11.8203C288.826 12.4388 290.316 13.4154 291.699 14.75C293.099 16.0684 294.222 17.8506 295.068 20.0967C295.915 22.3428 296.338 25.0446 296.338 28.2021C296.338 30.2692 296.086 32.2467 295.581 34.1348C295.093 36.0228 294.295 37.7643 293.188 39.3594C292.098 40.9544 290.666 42.2728 288.892 43.3145C287.118 44.3561 284.993 44.999 282.52 45.2432V45.5117C284.603 45.4141 286.58 44.9665 288.452 44.1689C290.324 43.3714 291.984 42.2321 293.433 40.751C294.897 39.2536 296.053 37.4307 296.899 35.2822C297.746 33.1338 298.169 30.7412 298.169 28.1045C298.169 25.2236 297.729 22.6846 296.851 20.4873C295.972 18.2738 294.775 16.4346 293.262 14.9697C291.748 13.5049 290.063 12.3981 288.208 11.6494C286.369 10.9007 284.456 10.502 282.471 10.4531ZM280.078 10.6973V10.4531C277.799 10.4694 275.578 10.9577 273.413 11.918C271.248 12.8783 269.344 14.1803 267.7 15.8242C266.056 17.4681 264.771 19.3398 263.843 21.4395C262.931 23.5391 262.476 25.7445 262.476 28.0557C262.476 30.8877 263.241 33.6465 264.771 36.332C266.317 39.0013 268.449 41.1742 271.167 42.8506C273.885 44.527 276.872 45.4141 280.127 45.5117V45.2432C276.969 44.9665 274.178 43.9818 271.753 42.2891C269.328 40.5964 267.48 38.4967 266.211 35.9902C264.958 33.4837 264.331 30.8877 264.331 28.2021C264.331 25.9886 264.697 23.8646 265.43 21.8301C266.162 19.7956 267.22 17.9808 268.604 16.3857C269.987 14.7907 271.655 13.4967 273.608 12.5039C275.578 11.5111 277.734 10.9089 280.078 10.6973ZM310.498 11.21V45.0967H312.183V11.21H310.498ZM303.101 10.2578H329.199L329.688 17.9971H329.346L327.588 11.8447C325.781 11.7471 324.268 11.6982 323.047 11.6982C319.971 11.6982 317.383 11.9342 315.283 12.4062C315.153 13.5293 315.031 15.0755 314.917 17.0449C314.803 19.0143 314.746 20.5199 314.746 21.5615C314.746 22.7008 314.811 24.361 314.941 26.542C316.455 26.721 318.221 26.8105 320.239 26.8105C322.371 26.8105 324.137 26.721 325.537 26.542L326.733 22.3428H327.051V32.792H326.733L325.537 28.3486C324.609 28.251 323.714 28.1859 322.852 28.1533C322.005 28.1208 321.118 28.1045 320.19 28.1045C319.312 28.1045 317.546 28.1859 314.893 28.3486C314.795 30.0576 314.746 31.8073 314.746 33.5977C314.746 34.8509 314.811 36.7145 314.941 39.1885C315.072 41.6462 315.234 43.5505 315.43 44.9014L321.533 45.7559V46H303.101V45.7559L308.984 44.9014C309.229 43.1924 309.424 40.8893 309.57 37.9922C309.717 35.0951 309.79 32.6618 309.79 30.6924V23.9053C309.79 23.0589 309.757 21.8138 309.692 20.1699C309.644 18.5098 309.57 16.8984 309.473 15.3359C309.391 13.7572 309.261 12.4469 309.082 11.4053L303.101 10.502V10.2578ZM339.16 11.21V45.0967H340.845V11.21H339.16ZM331.763 10.2578H357.861L358.35 17.9971H358.008L356.25 11.8447C354.443 11.7471 352.93 11.6982 351.709 11.6982C348.633 11.6982 346.045 11.9342 343.945 12.4062C343.815 13.5293 343.693 15.0755 343.579 17.0449C343.465 19.0143 343.408 20.5199 343.408 21.5615C343.408 22.7008 343.473 24.361 343.604 26.542C345.117 26.721 346.883 26.8105 348.901 26.8105C351.034 26.8105 352.799 26.721 354.199 26.542L355.396 22.3428H355.713V32.792H355.396L354.199 28.3486C353.271 28.251 352.376 28.1859 351.514 28.1533C350.667 28.1208 349.78 28.1045 348.853 28.1045C347.974 28.1045 346.208 28.1859 343.555 28.3486C343.457 30.0576 343.408 31.8073 343.408 33.5977C343.408 34.8509 343.473 36.7145 343.604 39.1885C343.734 41.6462 343.896 43.5505 344.092 44.9014L350.195 45.7559V46H331.763V45.7559L337.646 44.9014C337.891 43.1924 338.086 40.8893 338.232 37.9922C338.379 35.0951 338.452 32.6618 338.452 30.6924V23.9053C338.452 23.0589 338.42 21.8138 338.354 20.1699C338.306 18.5098 338.232 16.8984 338.135 15.3359C338.053 13.7572 337.923 12.4469 337.744 11.4053L331.763 10.502V10.2578ZM367.773 11.21V45.0479H369.458V11.21H367.773ZM360.352 10.502V10.2578H386.353L386.963 17.8506H386.572L384.814 11.8936C383.431 11.7959 381.877 11.7471 380.151 11.7471C377.01 11.7471 374.479 11.9668 372.559 12.4062C372.233 15.043 372.07 18.054 372.07 21.4395C372.07 23.5553 372.135 25.2725 372.266 26.5908C374.837 26.7373 376.473 26.8105 377.173 26.8105C379.012 26.8105 380.908 26.7048 382.861 26.4932L383.96 22.3428H384.375V32.7432H383.96L382.812 28.3486C381.396 28.1859 379.834 28.1045 378.125 28.1045C375.977 28.1045 374.023 28.2021 372.266 28.3975C372.054 30.2855 371.989 32.1328 372.07 33.9395C372.103 36.2507 372.144 38.1631 372.192 39.6768C372.241 41.1742 372.331 42.4681 372.461 43.5586C374.447 44.1608 377.051 44.4619 380.273 44.4619C382.129 44.4619 383.691 44.3887 384.961 44.2422L386.914 38.3584H387.256L386.719 46H360.425V45.7559L366.26 44.9014C366.39 44.234 366.504 43.2168 366.602 41.8496C366.715 40.4824 366.813 38.9525 366.895 37.2598C366.976 35.5508 367.033 34.1266 367.065 32.9873C367.098 31.8317 367.114 30.8226 367.114 29.96V23.8076C367.114 23.0264 367.09 21.9196 367.041 20.4873C366.992 19.0387 366.919 17.5413 366.821 15.9951C366.724 14.4489 366.585 12.9027 366.406 11.3564L360.352 10.502ZM396.436 11.21V45.0479H398.12V11.21H396.436ZM389.014 10.502V10.2578H415.015L415.625 17.8506H415.234L413.477 11.8936C412.093 11.7959 410.539 11.7471 408.813 11.7471C405.672 11.7471 403.141 11.9668 401.221 12.4062C400.895 15.043 400.732 18.054 400.732 21.4395C400.732 23.5553 400.798 25.2725 400.928 26.5908C403.499 26.7373 405.135 26.8105 405.835 26.8105C407.674 26.8105 409.57 26.7048 411.523 26.4932L412.622 22.3428H413.037V32.7432H412.622L411.475 28.3486C410.059 28.1859 408.496 28.1045 406.787 28.1045C404.639 28.1045 402.686 28.2021 400.928 28.3975C400.716 30.2855 400.651 32.1328 400.732 33.9395C400.765 36.2507 400.806 38.1631 400.854 39.6768C400.903 41.1742 400.993 42.4681 401.123 43.5586C403.109 44.1608 405.713 44.4619 408.936 44.4619C410.791 44.4619 412.354 44.3887 413.623 44.2422L415.576 38.3584H415.918L415.381 46H389.087V45.7559L394.922 44.9014C395.052 44.234 395.166 43.2168 395.264 41.8496C395.378 40.4824 395.475 38.9525 395.557 37.2598C395.638 35.5508 395.695 34.1266 395.728 32.9873C395.76 31.8317 395.776 30.8226 395.776 29.96V23.8076C395.776 23.0264 395.752 21.9196 395.703 20.4873C395.654 19.0387 395.581 17.5413 395.483 15.9951C395.386 14.4489 395.247 12.9027 395.068 11.3564L389.014 10.502Z" fill="#9C9C9C"/>
</svg>
