<svg xmlns="http://www.w3.org/2000/svg" viewBox="0 0 87.72 40"><defs><style>.cls-1{fill:#c39958;}.cls-2{font-size:8.5px;}.cls-2,.cls-4{fill:#fff;font-family:Castellar;}.cls-3{letter-spacing:-0.12em;}.cls-4{font-size:5.1px;}</style></defs><g id="Layer_2" data-name="Layer 2"><g id="Layer_1-2" data-name="Layer 1"><path class="cls-1" d="M18.91,8h0l-.06-.37a9.49,9.49,0,0,0-1.74-3.86l-.17-.22h0a8.53,8.53,0,0,0-.7-.77A9.44,9.44,0,0,0,13.85,1L13.63.93A9.54,9.54,0,0,0,9.82,0H9.33A9.5,9.5,0,0,0,5.52.88h0L5.29,1A9.56,9.56,0,0,0,2.2,3.43L2,3.65A9.6,9.6,0,0,0,.23,7.42h0c0,.12-.05.24-.07.36h0A9,9,0,0,0,0,9.51v21a8.75,8.75,0,0,0,.1,1.37l0,.24h0a7.64,7.64,0,0,0,.28,1.19l.09.29c.08.22.16.43.25.64a2,2,0,0,0,.11.26,9.79,9.79,0,0,0,1.39,2.17c.05.06.11.12.16.19a9.69,9.69,0,0,0,1,.94l.28.23a9.32,9.32,0,0,0,2.89,1.53l.25.08A9.72,9.72,0,0,0,9.25,40h.27A9.51,9.51,0,0,0,19,30.48v-21A9.29,9.29,0,0,0,18.91,8Zm-.36,1.5v3.17l-5.14,6.13a6.25,6.25,0,0,0-.5-.4h0l5.6-9.71C18.53,9,18.55,9.24,18.55,9.51ZM6.46,38a20.06,20.06,0,0,0-.67-2.1,4.48,4.48,0,0,0,.84-.85A20.4,20.4,0,0,0,6.46,38Zm-.85-2.58-.48-1.1A3.09,3.09,0,0,1,6.76,32,3.25,3.25,0,0,1,5.61,35.42Zm1.51-3.83L7,31.34l-.24.12a3.94,3.94,0,0,0-2,2.18c-.19-.36-.39-.73-.61-1.08a3.66,3.66,0,0,0,1.27-4,4.22,4.22,0,0,0,1.16.26c0,.25.11.49.17.72a20.75,20.75,0,0,0,.65,2.13c-.06.16-.11.31-.16.47A2.28,2.28,0,0,0,7.12,31.59Zm-3.7-4.86a3.87,3.87,0,0,0,1.5,1.58,3.74,3.74,0,0,0-2,2.54,9.45,9.45,0,0,0-.76-.79A3.38,3.38,0,0,0,3.42,26.73Zm-1.62,3a5.72,5.72,0,0,0-.49-.37,3,3,0,0,1,1.57-2.84A2.93,2.93,0,0,1,1.8,29.74Zm4.34-5.25v.17A3,3,0,0,1,3.53,23H5.27a2.62,2.62,0,0,1,.9.82c0,.23,0,.47,0,.7Zm9-2.49,3.37-1.23v1.71h-3.3C15.23,22.32,15.21,22.16,15.18,22Zm-.11-.48A4.51,4.51,0,0,0,14.9,21l3.65-2.1v1.36Zm-.36-1h0a4.49,4.49,0,0,0-.29-.53l4.13-3.47v1.78Zm-.57-.94a5.71,5.71,0,0,0-.39-.47l4.8-5.71v2.49Zm.62,2.86H4.39a5.21,5.21,0,0,1,10.37,0ZM6.09,23h.17a.77.77,0,0,1,0,.15A1.06,1.06,0,0,0,6.09,23Zm.23,4.26c0,.36.11.73.18,1.1A3.31,3.31,0,0,1,3.71,26.2,3.12,3.12,0,0,1,6.32,27.23ZM5,28.82a3.13,3.13,0,0,1-1.1,3.33c-.18-.27-.36-.52-.56-.78A3,3,0,0,1,5,28.82Zm1.6-4.09a2.89,2.89,0,0,1,3.27-.33,2.87,2.87,0,0,1-3.23,1l0,.06C6.62,25.2,6.62,25,6.62,24.73Zm.74,5.11A3.52,3.52,0,0,0,8,29.9H8.2A8.9,8.9,0,0,0,7.7,31C7.59,30.67,7.48,30.28,7.36,29.84Zm-.14-.54c-.06-.22-.11-.45-.16-.69A3,3,0,0,1,9.42,28a12.47,12.47,0,0,0-.94,1.42h0A2.54,2.54,0,0,1,7.22,29.3ZM7,28.09c-.06-.34-.12-.66-.16-1V27h0c0-.38-.09-.76-.12-1.13a2.9,2.9,0,0,0,.87.13,3.8,3.8,0,0,0,2.92-1.53l.16-.19-.2-.16a3.4,3.4,0,0,0-3.77,0c0-.13,0-.25,0-.38s0-.53.09-.78H17a15.24,15.24,0,0,0-5.91,3.2,12.83,12.83,0,0,0-1.3,1.36A3.35,3.35,0,0,0,7,28.09ZM18.41,7.92,12.5,18.14a5.12,5.12,0,0,0-.52-.27L16.91,4.33A8.84,8.84,0,0,1,18.41,7.92ZM15.9,3.13a6.59,6.59,0,0,1,.66.74l-5,13.81A5.76,5.76,0,0,0,11,17.5l2.82-16A9.32,9.32,0,0,1,15.9,3.13ZM13.31,1.32,10.48,17.4l-.66-.06V.49A8.81,8.81,0,0,1,13.31,1.32Zm-4-.83V17.34c-.22,0-.44,0-.65.06L5.83,1.27A9,9,0,0,1,9.33.49Zm-3.95,1,2.82,16a5.18,5.18,0,0,0-.56.17L2.57,3.75A9.07,9.07,0,0,1,5.38,1.49ZM2.22,4.2l5,13.66a3.4,3.4,0,0,0-.5.26L.67,7.69A8.89,8.89,0,0,1,2.22,4.2ZM.48,9.51A9.28,9.28,0,0,1,.55,8.45l5.73,9.93a4.54,4.54,0,0,0-.48.39L.48,12.44Zm0,3.68,5,5.91a5.58,5.58,0,0,0-.39.46L.48,15.72Zm0,3.16L4.78,20a4.27,4.27,0,0,0-.3.51l-4-2.31Zm0,2.37,3.8,2.19c-.06.17-.12.34-.17.51L.48,20.1Zm0,1.89L4,21.89a3.81,3.81,0,0,0-.08.59H.48ZM.48,23H3a3.43,3.43,0,0,0,3.13,2.17c0,.43,0,.88.08,1.33a3.92,3.92,0,0,0-2.86-.73l-.28,0,0,.1h0L2.89,26A3.52,3.52,0,0,0,.84,29.5l0,0a2,2,0,0,0-.34.06Zm0,7.51v-.39a3.36,3.36,0,0,1,.85-.1h0a5.86,5.86,0,0,1,.66.57,3.15,3.15,0,0,1-1.45,1A8.94,8.94,0,0,1,.48,30.48ZM.61,32a3.53,3.53,0,0,0,1.72-1.09,9.91,9.91,0,0,1,.82,1,3.35,3.35,0,0,0-2.35.94A8,8,0,0,1,.61,32Zm.59,2c-.08-.2-.16-.41-.23-.61v0a2.9,2.9,0,0,1,2.54-1l.34.54A2.94,2.94,0,0,1,1.2,34Zm.24.5h.07a3.45,3.45,0,0,0,2.58-1.13,19.3,19.3,0,0,1,1,2,3.38,3.38,0,0,0-2.47.88A8.88,8.88,0,0,1,1.44,34.52ZM3.71,37.4a8,8,0,0,1-.79-.75,2.92,2.92,0,0,1,2.33-.76c.09.24.18.46.25.68a2.68,2.68,0,0,1-1.68.92Zm.62.48a3.28,3.28,0,0,0,1.35-.79c.27.83.43,1.47.5,1.79A9,9,0,0,1,4.33,37.88Zm5.19,1.64H9.21A9.1,9.1,0,0,1,7,39.16c-.28-3-.38-13.22,11.09-16-1,1-3.53,3.84-4.07,7.2a7.84,7.84,0,0,1-3,5.15c-2.19,1.65-1.46,3.38-1.1,4H9.52Zm1.58-.15c-.57-.41-1.5-1.42-.19-3,0,0,3.25-2.84,3.66-6.23.35-2.89,3.15-6,4-6.83v7.21A9,9,0,0,1,11.1,39.37Z"/><text class="cls-2" transform="translate(22.11 19.56)">So<tspan class="cls-3" x="11.43" y="0">w</tspan><tspan x="19.84" y="0">an Caffe</tspan></text><text class="cls-4" transform="translate(22.11 26.32)">Coffee &amp; Food</text></g></g></svg>