<svg width="13" height="12" viewBox="0 0 13 12" fill="none" xmlns="http://www.w3.org/2000/svg">
<g clip-path="url(#clip0_103_208)">
<path d="M8.33431 1.26358C8.33431 1.26358 8.12116 1.13984 7.69487 0.89238C7.26858 0.644916 6.55329 0.521183 5.54898 0.521183C4.54467 0.521183 3.61623 0.768647 2.76365 1.26358C1.91107 1.7585 1.23732 2.43226 0.742393 3.28483C0.247464 4.13741 0 5.06585 0 6.07016C0 7.07447 0.247464 8.00291 0.742393 8.85549C1.23732 9.70807 1.91107 10.3818 2.76365 10.8767C3.61623 11.3717 4.54467 11.6191 5.54898 11.6191C6.55329 11.6191 7.48173 11.3717 8.33431 10.8767C9.18688 10.3818 9.86064 9.70807 10.3556 8.85549C10.8505 8.00291 11.098 7.07447 11.098 6.07016C11.098 5.06585 10.8505 4.13741 10.3556 3.28483C9.86064 2.43226 9.18688 1.7585 8.33431 1.26358ZM5.54898 10.9364C5.02154 10.9364 4.51035 10.8551 4.01542 10.6925C3.52049 10.5299 3.07434 10.2969 2.67695 9.99346C2.27956 9.69 1.93094 9.33958 1.6311 8.94219C1.33125 8.5448 1.10004 8.09865 0.937474 7.60372C0.774906 7.10879 0.693622 6.5976 0.693622 6.07016C0.693622 5.41267 0.82187 4.78407 1.07837 4.18438C1.33486 3.58468 1.67987 3.06808 2.11338 2.63456C2.54689 2.20105 3.0635 1.85604 3.66319 1.59955C4.26289 1.34305 4.89148 1.21481 5.54898 1.21481C6.20647 1.21481 6.83507 1.34305 7.43476 1.59955C8.03446 1.85604 8.55106 2.20105 8.98458 2.63456C9.41809 3.06808 9.7631 3.58468 10.0196 4.18438C10.2761 4.78407 10.4043 5.41267 10.4043 6.07016C10.4043 6.72766 10.2761 7.35625 10.0196 7.95595C9.7631 8.55564 9.41809 9.07405 8.98458 9.51118C8.55106 9.94831 8.03446 10.2951 7.43476 10.5516C6.83507 10.8081 6.20647 10.9364 5.54898 10.9364ZM5.89579 5.92927V2.60205C5.89579 2.50812 5.86147 2.42684 5.79283 2.3582C5.72419 2.28956 5.64291 2.25524 5.54898 2.25524C5.45505 2.25524 5.37377 2.28956 5.30513 2.3582C5.23649 2.42684 5.20217 2.50812 5.20217 2.60205V6.07016C5.20217 6.17132 5.23829 6.25441 5.31055 6.31943C5.31055 6.31943 5.31235 6.32304 5.31597 6.33027C5.31958 6.3375 5.32138 6.34111 5.32138 6.34111L7.0446 8.05349C7.10963 8.12574 7.19091 8.16187 7.28845 8.16187C7.38599 8.16187 7.46728 8.12755 7.53231 8.05891C7.59733 7.99027 7.62985 7.90718 7.62985 7.80964C7.62985 7.7121 7.59733 7.63081 7.53231 7.56578L5.89579 5.92927Z" fill="#989898"/>
</g>
<defs>
<clipPath id="clip0_103_208">
<rect width="13" height="12" fill="white" transform="matrix(1 0 0 -1 0 12)"/>
</clipPath>
</defs>
</svg>
