<svg xmlns="http://www.w3.org/2000/svg" viewBox="0 0 20.5 40"><defs><style>.cls-1{fill:#1b2430;}</style></defs><g id="Layer_2" data-name="Layer 2"><g id="Layer_1-2" data-name="Layer 1"><path class="cls-1" d="M20.37,8h0c0-.13,0-.25-.07-.37a9.09,9.09,0,0,0-1.87-3.86c-.06-.07-.12-.15-.19-.22h0a9,9,0,0,0-.74-.77A10.42,10.42,0,0,0,14.93,1L14.68.93A10.93,10.93,0,0,0,10.58,0h-.52A11,11,0,0,0,5.94.88h0L5.7,1A10.19,10.19,0,0,0,2.37,3.43c-.07.07-.13.15-.19.22A9.22,9.22,0,0,0,.25,7.42h0c0,.12-.06.24-.08.36h0A9,9,0,0,0,0,9.51v21a8.83,8.83,0,0,0,.11,1.37l0,.24h0a8,8,0,0,0,.3,1.19c0,.1.07.19.1.29s.17.43.26.64l.13.26a9.24,9.24,0,0,0,1.5,2.17l.17.19a11.73,11.73,0,0,0,1.05.94L4,38a10.32,10.32,0,0,0,3.1,1.53l.28.08A10.61,10.61,0,0,0,10,40h.29c5.66,0,10.25-4.26,10.25-9.52v-21A8.28,8.28,0,0,0,20.37,8ZM20,9.51v3.17l-5.54,6.13c-.17-.14-.35-.28-.53-.4h0l6-9.71A7.32,7.32,0,0,1,20,9.51ZM7,38c-.16-.54-.39-1.27-.72-2.09a4.62,4.62,0,0,0,.9-.85A17.9,17.9,0,0,0,7,38ZM6,35.42c-.16-.35-.33-.72-.52-1.1A3.11,3.11,0,0,1,7.28,32,3.1,3.1,0,0,1,6,35.42Zm1.63-3.83-.11-.26-.25.13a4.05,4.05,0,0,0-2.15,2.18c-.2-.36-.42-.73-.66-1.09a3.48,3.48,0,0,0,1.37-4,4.52,4.52,0,0,0,1.25.27c.06.25.12.49.18.71A22.37,22.37,0,0,0,8,31.68c-.06.16-.12.31-.17.47A2.34,2.34,0,0,0,7.67,31.59Zm-4-4.86A3.92,3.92,0,0,0,5.3,28.31a3.76,3.76,0,0,0-2.14,2.54,10.2,10.2,0,0,0-.82-.79A3.27,3.27,0,0,0,3.69,26.73Zm-1.75,3c-.17-.13-.34-.26-.52-.38a3,3,0,0,1,1.69-2.83A2.8,2.8,0,0,1,1.94,29.74Zm4.67-5.25v.17A3.16,3.16,0,0,1,3.81,23H5.68a2.87,2.87,0,0,1,1,.82c0,.23,0,.47,0,.7ZM16.35,22,20,20.77v1.71H16.43C16.41,22.32,16.38,22.16,16.35,22Zm-.11-.48L16.06,21,20,18.9v1.36Zm-.39-1h0a4.66,4.66,0,0,0-.32-.53L20,16.56v1.78Zm-.61-.94c-.14-.16-.28-.32-.43-.47L20,13.44v2.49Zm.66,2.86H4.73a5.49,5.49,0,0,1,5.59-4.66A5.48,5.48,0,0,1,15.9,22.48ZM6.56,23h.19a.78.78,0,0,0,0,.14Zm.24,4.26c.06.36.13.72.21,1.1A3.57,3.57,0,0,1,4,26.2,3.46,3.46,0,0,1,6.8,27.23ZM5.41,28.82a3,3,0,0,1-1.19,3.32c-.19-.26-.39-.52-.59-.77A3,3,0,0,1,5.41,28.82Zm1.72-4.09a3.31,3.31,0,0,1,3.52-.33,3.26,3.26,0,0,1-3.48,1l0,.06C7.14,25.2,7.13,25,7.13,24.73Zm.8,5.11a4.05,4.05,0,0,0,.67.06h.23c-.2.35-.37.71-.54,1.08C8.18,30.67,8.05,30.28,7.93,29.84Zm-.15-.54q-.09-.33-.18-.69A3.41,3.41,0,0,1,10.14,28a12.93,12.93,0,0,0-1,1.42h0A2.94,2.94,0,0,1,7.78,29.3Zm-.29-1.21c-.07-.34-.13-.66-.18-1V27h0a11.12,11.12,0,0,1-.12-1.13,3.32,3.32,0,0,0,.93.12,4.16,4.16,0,0,0,3.14-1.52l.18-.19-.22-.16a3.89,3.89,0,0,0-4.06,0l0-.38a6.39,6.39,0,0,1,.1-.78h11a16.81,16.81,0,0,0-6.38,3.2,12.75,12.75,0,0,0-1.39,1.36A3.85,3.85,0,0,0,7.49,28.09ZM19.83,7.92,13.47,18.14a5.77,5.77,0,0,0-.56-.27L18.22,4.33A8.64,8.64,0,0,1,19.83,7.92Zm-2.7-4.79a8.27,8.27,0,0,1,.71.74L12.43,17.68q-.31-.11-.63-.18l3-16A9.84,9.84,0,0,1,17.13,3.13ZM14.34,1.32,11.29,17.4c-.23,0-.47,0-.71-.06V.49A10.15,10.15,0,0,1,14.34,1.32ZM10.06.49V17.34c-.24,0-.48,0-.71.06L6.29,1.27A10.19,10.19,0,0,1,10.06.49Zm-4.26,1,3,16a6.09,6.09,0,0,0-.61.17L2.77,3.75A9.62,9.62,0,0,1,5.8,1.49ZM2.39,4.2,7.75,17.85a4.53,4.53,0,0,0-.54.27L.72,7.69A8.83,8.83,0,0,1,2.39,4.2ZM.52,9.51A9.28,9.28,0,0,1,.59,8.45l6.18,9.93a6.55,6.55,0,0,0-.53.39L.52,12.44Zm0,3.68L5.87,19.1a6,6,0,0,0-.42.46L.52,15.72Zm0,3.16L5.15,20a4.39,4.39,0,0,0-.32.51L.52,18.16Zm0,2.37,4.1,2.19a3.52,3.52,0,0,0-.19.51L.52,20.1Zm0,1.89L4.3,21.89a5.58,5.58,0,0,0-.09.59H.52ZM.52,23H3.24a3.66,3.66,0,0,0,3.37,2.17c0,.43,0,.88.09,1.33a4.47,4.47,0,0,0-3.08-.73l-.3,0,0,.09h0L3.12,26A3.48,3.48,0,0,0,.9,29.5l0,0-.36.06Zm0,7.51v-.39A3.87,3.87,0,0,1,1.44,30h0a7.69,7.69,0,0,1,.7.58,3.37,3.37,0,0,1-1.55,1A6.94,6.94,0,0,1,.52,30.48ZM.66,32a4,4,0,0,0,1.85-1.09,12.2,12.2,0,0,1,.89,1,3.76,3.76,0,0,0-2.54.94A8.08,8.08,0,0,1,.66,32Zm.63,2c-.09-.2-.17-.41-.24-.61l0,0a3.26,3.26,0,0,1,2.74-1c.12.18.25.36.36.54A3.26,3.26,0,0,1,1.3,34Zm.26.5h.08a3.83,3.83,0,0,0,2.78-1.13,19.3,19.3,0,0,1,1,2,3.8,3.8,0,0,0-2.66.88A8.89,8.89,0,0,1,1.55,34.52ZM4,37.4a10.26,10.26,0,0,1-.86-.75,3.32,3.32,0,0,1,2.52-.76c.1.23.19.46.27.68a3,3,0,0,1-1.81.92Zm.66.48a3.55,3.55,0,0,0,1.46-.79c.29.82.46,1.47.54,1.79A10.68,10.68,0,0,1,4.66,37.88Zm5.59,1.63H9.92a10.35,10.35,0,0,1-2.36-.35c-.31-3-.42-13.22,11.94-16-1.08,1-3.81,3.84-4.39,7.2a7.68,7.68,0,0,1-3.21,5.15c-2.36,1.64-1.58,3.38-1.19,4h-.46ZM12,39.37c-.61-.41-1.62-1.42-.21-3,0,0,3.51-2.84,3.95-6.23.37-2.89,3.4-6,4.28-6.83v7.21A9.26,9.26,0,0,1,12,39.37Z"/></g></g></svg>